<svg id="svg" xmlns="http://www.w3.org/2000/svg" xmlns:xlink="http://www.w3.org/1999/xlink" width="400" height="400" viewBox="0, 0, 400,400" version="1.1"><g id="svgg"><path id="path0" d="M189.362 44.424 C 190.065 44.511,191.119 44.509,191.706 44.420 C 192.293 44.331,191.719 44.259,190.430 44.262 C 189.141 44.264,188.660 44.337,189.362 44.424 M208.697 44.421 C 209.291 44.511,210.169 44.508,210.650 44.416 C 211.130 44.323,210.645 44.249,209.570 44.252 C 208.496 44.255,208.103 44.331,208.697 44.421 M184.673 44.808 C 185.158 44.901,185.862 44.897,186.235 44.800 C 186.608 44.702,186.211 44.625,185.352 44.630 C 184.492 44.634,184.187 44.714,184.673 44.808 M190.820 44.988 C 172.484 45.792,150.971 51.340,133.496 59.770 C 132.138 60.425,132.001 60.429,131.631 59.828 C 131.278 59.256,131.243 59.270,131.338 59.945 C 131.424 60.559,130.521 61.205,126.758 63.221 C 124.180 64.602,119.556 67.378,116.484 69.389 C 110.686 73.185,110.090 73.508,110.987 72.363 C 111.472 71.745,111.459 71.730,110.844 72.212 C 110.471 72.505,110.252 72.885,110.358 73.057 C 110.546 73.361,107.014 76.172,106.443 76.172 C 106.284 76.172,106.396 75.864,106.690 75.488 C 107.176 74.870,107.162 74.855,106.547 75.337 C 106.174 75.630,105.956 76.012,106.064 76.186 C 106.264 76.510,103.103 79.297,102.536 79.297 C 102.364 79.297,102.558 78.901,102.967 78.418 L 103.711 77.539 102.841 78.275 C 102.363 78.680,102.052 79.141,102.150 79.300 C 102.249 79.459,100.839 80.886,99.017 82.471 C 94.914 86.040,94.736 85.241,100.975 91.229 C 103.875 94.012,106.248 96.458,106.249 96.665 C 106.249 96.872,105.327 96.169,104.199 95.103 C 102.173 93.189,102.176 93.194,104.405 95.531 C 105.646 96.831,106.569 98.017,106.456 98.167 C 106.343 98.316,106.373 98.344,106.522 98.230 C 106.672 98.116,108.190 99.391,109.896 101.062 C 111.601 102.734,112.861 103.859,112.694 103.563 C 112.165 102.621,113.124 103.246,115.195 105.191 C 117.140 107.018,117.683 107.743,116.699 107.197 C 116.431 107.049,118.019 108.761,120.228 111.003 C 122.466 113.273,124.109 115.243,123.939 115.449 C 123.766 115.659,123.795 115.687,124.004 115.514 C 124.483 115.119,133.631 124.222,133.315 124.778 C 133.185 125.007,133.222 125.065,133.398 124.906 C 133.573 124.746,133.997 124.826,134.339 125.083 C 134.681 125.339,134.258 124.788,133.398 123.858 C 131.103 121.375,132.347 122.072,135.323 124.937 C 136.737 126.298,137.778 127.600,137.637 127.829 C 137.495 128.058,137.552 128.139,137.763 128.008 C 138.195 127.742,141.016 129.921,141.016 130.520 C 141.016 130.732,140.840 130.797,140.625 130.664 C 139.805 130.157,140.301 130.759,142.086 132.438 C 143.105 133.396,143.423 133.608,142.794 132.910 C 140.564 130.435,142.447 131.685,145.322 134.590 C 146.928 136.212,147.891 137.426,147.461 137.287 C 146.870 137.097,146.814 137.131,147.230 137.427 C 147.533 137.642,147.972 137.762,148.207 137.693 C 148.441 137.623,149.248 138.288,150.000 139.170 C 150.752 140.051,151.118 140.622,150.813 140.439 C 150.390 140.185,150.321 140.271,150.524 140.800 C 150.800 141.519,144.877 148.061,143.974 148.034 C 143.743 148.028,143.818 147.808,144.141 147.546 C 144.463 147.284,144.980 146.719,145.290 146.289 C 145.600 145.859,144.680 146.642,143.246 148.029 L 140.639 150.550 139.400 149.396 C 138.718 148.761,138.286 148.462,138.439 148.730 C 138.927 149.585,138.062 149.256,137.085 148.216 C 136.567 147.664,136.140 146.917,136.138 146.556 C 136.135 146.167,135.814 145.891,135.352 145.880 C 134.922 145.870,134.619 145.637,134.678 145.363 C 134.737 145.088,134.636 144.956,134.454 145.068 C 134.272 145.181,132.554 143.656,130.636 141.680 L 127.148 138.087 130.273 141.013 C 131.992 142.623,129.884 140.381,125.590 136.032 C 118.197 128.547,117.200 127.588,117.773 128.516 C 118.457 129.622,117.106 128.644,115.221 126.668 C 114.047 125.438,113.613 124.866,114.258 125.399 L 115.430 126.367 114.509 125.321 C 114.003 124.746,113.387 124.352,113.141 124.447 C 112.895 124.541,112.461 124.247,112.177 123.792 C 111.749 123.106,111.749 123.014,112.178 123.252 C 112.463 123.410,109.445 120.265,105.473 116.262 C 98.623 109.361,97.675 108.457,98.242 109.375 C 98.658 110.048,97.809 109.800,97.130 109.050 C 96.774 108.657,96.615 108.189,96.776 108.011 C 96.938 107.833,96.874 107.799,96.634 107.936 C 96.095 108.243,94.808 106.896,95.214 106.449 C 95.376 106.270,95.315 106.235,95.079 106.369 C 94.844 106.503,94.152 106.092,93.541 105.455 C 92.931 104.818,92.580 104.297,92.761 104.297 C 92.942 104.297,92.775 103.949,92.391 103.525 C 92.007 103.100,91.529 102.854,91.329 102.977 C 90.916 103.232,89.453 102.035,89.453 101.441 C 89.453 101.227,89.849 101.377,90.332 101.777 C 90.815 102.176,89.674 100.931,87.796 99.011 L 84.381 95.519 83.304 96.675 L 82.227 97.830 83.307 96.888 L 84.387 95.947 85.936 97.460 C 86.788 98.292,87.398 99.060,87.292 99.167 C 87.185 99.273,86.521 98.801,85.815 98.118 C 84.151 96.505,84.403 96.397,81.421 100.001 C 79.998 101.720,78.687 103.036,78.507 102.924 C 78.327 102.813,78.052 102.927,77.896 103.179 C 77.720 103.465,77.783 103.532,78.065 103.358 C 78.982 102.791,78.397 103.814,75.405 108.008 C 73.719 110.371,72.153 112.263,71.926 112.212 C 71.698 112.161,71.600 112.346,71.707 112.625 C 71.813 112.903,70.526 115.406,68.846 118.186 C 57.475 137.007,49.452 161.380,47.446 183.203 C 47.317 184.600,47.132 186.349,47.033 187.090 C 46.784 188.968,46.780 207.428,47.028 209.465 C 47.140 210.382,47.422 212.891,47.655 215.039 C 48.083 218.985,48.321 220.538,49.422 226.563 C 52.806 245.090,60.242 263.321,70.966 279.381 C 72.790 282.112,74.167 284.533,74.026 284.761 C 73.885 284.989,73.983 285.127,74.243 285.068 C 74.502 285.009,76.086 286.715,77.761 288.859 C 79.437 291.002,80.952 292.804,81.129 292.863 C 81.306 292.922,93.920 280.500,109.159 265.258 C 124.398 250.016,137.014 237.636,137.193 237.747 C 137.372 237.858,137.471 237.716,137.412 237.431 C 137.353 237.147,137.508 236.952,137.756 236.999 C 138.003 237.046,138.443 236.782,138.732 236.413 C 139.206 235.808,139.191 235.795,138.574 236.278 C 137.639 237.011,137.715 236.643,138.733 235.509 C 139.295 234.882,139.495 234.793,139.336 235.241 C 139.204 235.610,139.265 236.016,139.470 236.143 C 139.676 236.270,139.844 236.157,139.844 235.892 C 139.844 235.625,140.273 235.814,140.808 236.317 C 141.339 236.815,141.696 237.348,141.602 237.500 C 141.507 237.652,141.864 238.185,142.395 238.683 C 142.925 239.182,143.359 239.444,143.359 239.265 C 143.359 239.087,143.707 239.256,144.131 239.640 C 144.556 240.024,144.825 240.466,144.729 240.620 C 144.634 240.775,145.033 241.323,145.618 241.838 L 146.680 242.773 145.733 241.699 C 145.212 241.108,144.965 240.625,145.184 240.625 C 145.735 240.625,146.914 241.985,147.027 242.749 C 147.077 243.095,147.977 244.250,149.025 245.315 L 150.932 247.250 150.019 248.222 C 149.516 248.757,148.911 249.084,148.674 248.949 C 148.436 248.814,148.380 248.854,148.548 249.039 C 148.953 249.483,139.825 258.622,139.285 258.315 C 139.055 258.185,139.005 258.229,139.173 258.414 C 139.341 258.599,137.671 260.604,135.462 262.871 L 131.446 266.992 136.080 262.500 C 138.628 260.029,140.650 258.224,140.572 258.488 C 140.309 259.376,120.971 278.486,120.579 278.244 C 120.366 278.112,120.303 278.184,120.438 278.403 C 120.574 278.622,120.296 279.133,119.822 279.538 C 118.969 280.264,118.966 280.264,119.538 279.492 C 120.074 278.770,120.066 278.751,119.438 279.243 C 119.064 279.536,118.850 279.924,118.961 280.104 C 119.194 280.480,117.972 282.031,117.443 282.031 C 117.250 282.031,117.311 281.768,117.578 281.445 C 118.490 280.346,117.728 280.856,116.577 282.114 C 115.946 282.804,115.737 283.134,116.113 282.847 C 117.292 281.949,116.858 282.991,115.509 284.298 C 114.033 285.728,113.193 285.981,114.277 284.668 C 114.676 284.185,109.957 288.798,103.790 294.919 C 97.624 301.041,92.578 306.146,92.578 306.265 C 92.578 306.383,97.095 301.951,102.615 296.415 C 108.136 290.880,112.742 286.440,112.852 286.550 C 112.961 286.659,108.731 291.092,103.452 296.402 C 92.638 307.276,92.142 308.002,95.208 308.452 C 95.536 308.500,96.354 309.056,97.024 309.688 C 97.694 310.319,98.594 311.113,99.023 311.452 C 99.453 311.791,101.475 313.453,103.516 315.145 C 110.963 321.320,122.025 328.408,132.136 333.484 C 135.738 335.292,138.585 336.933,138.463 337.131 C 138.341 337.329,138.486 337.397,138.787 337.282 C 139.087 337.166,141.425 337.891,143.983 338.891 C 151.655 341.893,159.753 344.366,166.992 345.917 C 201.958 353.412,238.034 349.044,267.956 333.692 C 273.878 330.654,276.271 329.323,278.472 327.843 C 279.858 326.912,280.683 326.681,280.276 327.339 C 280.137 327.565,280.303 327.624,280.677 327.480 C 281.125 327.308,281.179 327.151,280.859 326.953 C 280.572 326.776,281.145 326.213,282.394 325.445 C 284.545 324.121,284.966 323.969,284.533 324.670 C 284.359 324.951,284.426 325.015,284.712 324.838 C 284.963 324.683,285.075 324.404,284.961 324.218 C 284.846 324.033,285.146 323.606,285.627 323.269 C 286.656 322.548,287.271 322.469,286.877 323.107 C 286.703 323.389,286.770 323.452,287.055 323.276 C 287.307 323.120,287.424 322.849,287.315 322.673 C 287.207 322.498,288.478 321.332,290.141 320.082 C 294.632 316.708,296.986 314.776,301.893 310.440 L 306.325 306.524 290.076 290.272 C 281.140 281.333,273.828 273.846,273.828 273.633 C 273.828 273.420,281.334 280.716,290.509 289.845 C 299.683 298.975,306.889 306.079,306.523 305.632 C 306.157 305.185,305.990 304.674,306.151 304.496 C 306.313 304.317,306.258 304.278,306.030 304.408 C 305.555 304.677,286.968 286.243,287.290 285.822 C 287.405 285.671,287.376 285.641,287.225 285.757 C 287.074 285.872,283.698 282.752,279.723 278.823 C 275.749 274.894,272.823 272.075,273.223 272.559 C 273.622 273.042,273.788 273.438,273.590 273.438 C 273.109 273.438,262.500 262.789,262.500 262.306 C 262.500 262.097,264.653 264.033,267.285 266.608 L 272.070 271.289 267.410 266.525 C 264.846 263.904,262.633 261.832,262.492 261.919 C 262.192 262.104,249.256 249.203,248.698 248.162 C 248.434 247.670,248.658 247.752,249.451 248.438 C 250.360 249.224,250.440 249.248,249.861 248.560 C 249.466 248.090,249.256 247.521,249.396 247.295 C 249.556 247.035,249.396 246.981,248.961 247.148 C 248.583 247.294,249.042 246.720,249.983 245.874 C 250.923 245.028,251.839 244.380,252.018 244.434 C 252.197 244.487,252.300 244.312,252.246 244.043 C 252.192 243.774,252.412 243.613,252.734 243.685 C 253.057 243.757,253.185 243.680,253.019 243.514 C 252.544 243.039,255.469 240.265,256.201 240.498 C 256.715 240.660,256.731 240.624,256.289 240.310 C 255.731 239.913,259.814 235.555,260.750 235.549 C 261.246 235.546,268.750 243.044,268.750 243.543 C 268.750 243.744,268.003 243.216,267.090 242.369 C 266.177 241.523,266.920 242.366,268.741 244.243 C 270.563 246.120,272.138 247.656,272.242 247.656 C 272.346 247.656,271.566 246.777,270.508 245.703 C 269.450 244.629,268.756 243.750,268.966 243.750 C 269.451 243.750,278.125 252.427,278.125 252.911 C 278.125 253.109,277.617 252.784,276.996 252.189 C 276.132 251.362,275.796 251.230,275.566 251.628 C 275.401 251.914,275.414 252.013,275.596 251.848 C 275.778 251.682,276.633 252.209,277.496 253.019 C 278.359 253.829,278.832 254.185,278.547 253.809 C 278.262 253.433,278.184 253.125,278.372 253.125 C 278.826 253.125,306.250 280.566,306.250 281.020 C 306.250 281.213,305.854 281.036,305.371 280.627 L 304.492 279.883 305.228 280.753 C 305.633 281.231,306.135 281.516,306.345 281.386 C 306.742 281.141,317.969 292.099,317.969 292.731 C 317.969 292.928,317.573 292.758,317.090 292.352 C 316.606 291.946,316.727 292.182,317.358 292.877 C 318.523 294.160,319.273 294.656,318.331 293.520 C 317.889 292.988,317.919 292.918,318.543 293.032 C 319.979 293.293,332.357 275.953,336.016 268.555 C 336.335 267.910,337.486 265.625,338.575 263.477 C 340.784 259.121,344.797 249.310,346.086 245.117 C 346.548 243.613,347.169 241.680,347.466 240.820 C 358.126 209.995,354.487 164.752,338.716 132.031 C 337.062 128.599,336.836 127.910,337.496 128.318 C 337.721 128.457,337.780 128.291,337.636 127.917 C 337.445 127.419,337.322 127.390,337.077 127.786 C 336.852 128.151,336.651 127.999,336.364 127.243 C 336.144 126.665,334.816 124.192,333.412 121.747 C 330.781 117.164,330.512 116.551,331.348 117.032 C 331.631 117.195,331.700 117.164,331.510 116.957 C 331.331 116.762,330.994 116.602,330.762 116.602 C 330.529 116.602,330.257 116.357,330.158 116.059 C 330.037 115.697,330.144 115.620,330.478 115.826 C 330.810 116.031,330.884 115.981,330.697 115.679 C 330.542 115.427,330.268 115.313,330.088 115.424 C 329.908 115.535,328.777 114.149,327.575 112.343 C 325.375 109.036,324.708 107.565,326.229 109.375 L 327.049 110.352 326.465 109.375 C 326.144 108.838,325.654 108.398,325.376 108.398 C 325.097 108.398,324.788 108.154,324.689 107.856 C 324.568 107.494,324.675 107.416,325.010 107.623 C 325.348 107.832,325.416 107.778,325.217 107.456 C 325.054 107.194,324.822 107.079,324.700 107.201 C 324.420 107.481,323.047 106.265,323.047 105.738 C 323.047 105.523,323.442 105.683,323.926 106.092 L 324.805 106.836 324.075 105.973 C 323.673 105.498,323.168 105.146,322.952 105.191 C 322.735 105.236,322.470 105.029,322.361 104.731 C 322.229 104.367,322.329 104.290,322.666 104.498 C 322.997 104.703,323.072 104.653,322.885 104.351 C 322.729 104.099,322.434 103.998,322.228 104.125 C 322.022 104.252,321.512 103.948,321.096 103.448 C 320.059 102.204,320.118 101.667,321.191 102.576 L 322.070 103.320 321.335 102.451 C 320.930 101.972,320.470 101.660,320.313 101.757 C 320.020 101.938,316.797 98.328,316.797 97.819 C 316.797 97.663,317.192 97.870,317.676 98.279 L 318.555 99.023 317.808 98.142 C 317.398 97.657,316.975 97.348,316.868 97.455 C 316.761 97.562,316.426 97.444,316.123 97.192 C 315.674 96.820,311.914 100.393,295.773 116.532 C 284.883 127.420,275.800 136.328,275.588 136.328 C 275.375 136.328,279.506 131.978,284.768 126.660 C 290.653 120.713,289.425 121.864,281.578 129.650 C 274.351 136.821,268.903 142.523,269.011 142.804 C 269.116 143.076,268.836 143.495,268.390 143.734 C 267.943 143.973,267.578 144.043,267.578 143.891 C 267.578 143.739,267.144 144.022,266.614 144.520 C 266.083 145.018,265.727 145.553,265.823 145.708 C 265.919 145.863,265.650 146.304,265.225 146.688 C 264.801 147.072,264.453 147.244,264.453 147.070 C 264.453 146.896,264.106 147.068,263.681 147.453 C 263.256 147.837,262.979 148.265,263.065 148.403 C 263.249 148.701,262.332 149.831,260.851 151.133 C 259.808 152.051,258.203 151.730,258.822 150.727 C 258.943 150.531,258.810 150.420,258.525 150.479 C 258.241 150.538,258.042 150.397,258.083 150.166 C 258.124 149.935,256.322 147.916,254.079 145.681 C 249.633 141.249,249.581 141.155,250.904 139.912 C 251.987 138.894,252.652 138.785,251.915 139.746 C 251.627 140.122,251.869 140.004,252.453 139.483 C 253.558 138.498,253.957 137.819,252.930 138.672 C 252.607 138.939,252.344 139.002,252.344 138.811 C 252.344 138.353,261.041 129.688,261.500 129.688 C 261.695 129.688,261.430 130.171,260.912 130.762 C 260.301 131.457,260.484 131.361,261.429 130.490 C 262.850 129.181,263.482 128.320,262.305 129.297 C 261.982 129.564,261.719 129.629,261.719 129.440 C 261.719 128.987,289.159 101.563,289.613 101.563 C 289.807 101.563,289.647 101.914,289.258 102.344 C 288.869 102.773,288.633 103.125,288.734 103.125 C 288.834 103.125,289.433 102.560,290.064 101.870 C 290.695 101.180,290.903 100.850,290.527 101.137 C 288.363 102.787,290.629 100.184,296.196 94.624 C 302.609 88.221,305.784 85.706,300.382 91.309 C 298.777 92.974,299.441 92.405,301.857 90.046 C 306.052 85.949,306.692 85.085,305.896 84.593 C 305.701 84.472,305.625 84.694,305.728 85.085 C 305.830 85.477,305.627 86.035,305.276 86.326 C 304.709 86.797,304.665 86.747,304.883 85.879 C 305.046 85.232,304.924 84.733,304.522 84.399 C 304.188 84.122,303.997 83.763,304.097 83.602 C 304.197 83.440,303.887 82.976,303.409 82.572 L 302.539 81.836 303.283 82.715 C 304.375 84.004,303.635 83.786,301.959 82.324 C 301.158 81.626,299.070 79.942,297.318 78.582 C 295.566 77.223,294.225 75.960,294.338 75.777 C 294.451 75.594,294.338 75.317,294.087 75.162 C 293.801 74.985,293.734 75.049,293.908 75.330 C 294.431 76.176,293.730 75.781,290.042 73.153 C 284.431 69.154,276.256 64.342,269.531 61.081 C 266.201 59.466,263.037 57.911,262.500 57.627 C 258.676 55.599,241.513 49.859,235.593 48.627 C 234.611 48.423,234.410 48.260,234.811 47.993 C 235.175 47.750,235.013 47.711,234.314 47.873 C 233.743 48.005,231.897 47.842,230.212 47.511 C 228.527 47.179,226.621 46.829,225.977 46.733 C 225.332 46.636,223.662 46.378,222.266 46.159 C 215.238 45.056,201.187 44.533,190.820 44.988 M214.160 44.801 C 214.536 44.899,215.151 44.899,215.527 44.801 C 215.903 44.702,215.596 44.622,214.844 44.622 C 214.092 44.622,213.784 44.702,214.160 44.801 M212.109 58.965 C 218.532 59.468,229.251 61.287,234.524 62.769 C 235.114 62.935,235.152 63.045,234.720 63.323 C 234.376 63.544,234.631 63.584,235.420 63.433 C 238.605 62.822,268.324 74.649,267.393 76.156 C 267.273 76.350,267.381 76.636,267.632 76.791 C 267.918 76.968,267.985 76.905,267.811 76.623 C 267.464 76.062,267.790 76.049,268.787 76.582 C 269.208 76.808,269.433 77.186,269.287 77.424 C 269.129 77.679,269.198 77.745,269.457 77.585 C 269.886 77.320,273.047 78.700,273.047 79.151 C 273.047 79.277,272.783 79.279,272.461 79.156 C 271.586 78.820,271.754 79.204,272.703 79.713 C 273.286 80.024,273.453 80.028,273.266 79.726 C 272.883 79.107,273.514 79.198,274.529 79.910 C 275.010 80.247,275.286 80.713,275.141 80.946 C 274.987 81.197,275.061 81.259,275.322 81.097 C 275.872 80.757,277.444 81.553,277.153 82.024 C 277.036 82.213,277.146 82.495,277.398 82.651 C 277.700 82.837,277.750 82.763,277.545 82.432 C 277.338 82.097,277.416 81.990,277.778 82.111 C 278.076 82.210,278.320 82.488,278.320 82.728 C 278.320 82.968,278.576 83.393,278.887 83.672 C 279.377 84.110,279.384 84.086,278.937 83.496 C 278.653 83.120,278.533 82.813,278.671 82.813 C 279.156 82.813,282.045 84.882,281.843 85.084 C 281.731 85.196,281.927 85.607,282.280 85.996 C 282.832 86.606,282.845 86.800,282.378 87.395 C 281.884 88.025,281.897 88.038,282.529 87.542 C 282.910 87.243,283.300 87.076,283.396 87.172 C 283.696 87.472,239.881 131.049,239.161 131.166 C 238.745 131.233,237.484 130.275,235.949 128.724 C 233.825 126.579,232.968 125.074,234.775 126.660 C 235.081 126.929,235.004 126.757,234.605 126.279 C 234.206 125.800,233.712 125.513,233.506 125.640 C 233.009 125.948,230.043 123.028,230.350 122.532 C 230.482 122.319,230.406 122.258,230.183 122.396 C 229.676 122.709,228.806 121.725,229.203 121.288 C 229.362 121.112,229.269 121.097,228.996 121.254 C 228.675 121.439,227.536 120.531,225.773 118.687 C 222.339 115.092,222.219 114.632,225.586 117.969 C 226.982 119.353,228.125 120.400,228.125 120.296 C 228.125 120.192,225.534 117.561,222.366 114.448 C 219.199 111.336,217.744 109.976,219.132 111.426 C 220.521 112.876,221.482 114.063,221.269 114.063 C 220.628 114.063,214.729 107.924,214.979 107.519 C 215.107 107.312,214.469 106.558,213.563 105.842 C 212.300 104.846,212.096 104.764,212.689 105.493 C 213.283 106.222,213.168 106.176,212.201 105.298 C 210.885 104.103,210.590 103.662,211.426 104.139 C 211.694 104.292,211.406 103.871,210.784 103.204 C 210.163 102.536,209.545 102.026,209.410 102.069 C 209.025 102.193,205.078 98.754,205.078 98.295 C 205.078 98.069,205.913 98.666,206.934 99.621 C 207.954 100.576,206.858 99.382,204.499 96.968 C 202.139 94.554,200.054 92.578,199.866 92.578 C 199.677 92.578,199.938 92.932,200.445 93.365 L 201.367 94.153 200.380 93.931 C 199.646 93.766,199.153 93.965,198.457 94.706 C 197.942 95.254,197.331 95.698,197.100 95.691 C 196.869 95.684,197.163 95.253,197.754 94.733 C 198.345 94.213,198.828 93.648,198.828 93.477 C 198.828 93.307,190.479 101.515,180.275 111.717 L 161.722 130.268 154.986 123.630 C 151.281 119.979,149.297 118.091,150.578 119.434 C 154.459 123.505,152.451 122.164,147.956 117.682 C 143.991 113.730,142.034 111.161,145.215 114.084 L 146.680 115.430 145.348 113.980 C 144.616 113.183,143.873 112.619,143.698 112.728 C 143.267 112.994,139.847 109.807,139.954 109.239 C 140.001 108.992,139.850 108.823,139.619 108.864 C 139.389 108.905,137.104 106.816,134.541 104.222 C 131.979 101.628,130.146 99.642,130.469 99.808 C 130.791 99.975,127.979 96.999,124.221 93.196 L 117.387 86.280 118.361 85.532 C 119.456 84.691,120.110 84.535,119.689 85.217 C 119.515 85.498,119.582 85.561,119.868 85.385 C 120.119 85.229,120.233 84.953,120.120 84.770 C 119.888 84.395,121.747 82.811,122.416 82.814 C 122.656 82.816,122.324 83.269,121.680 83.823 L 120.508 84.830 121.782 83.987 C 122.483 83.523,122.965 82.996,122.854 82.816 C 122.742 82.636,123.245 82.122,123.969 81.674 C 125.448 80.760,125.962 80.642,125.549 81.310 C 125.375 81.592,125.442 81.655,125.727 81.479 C 125.979 81.323,126.091 81.044,125.976 80.859 C 125.862 80.674,126.162 80.247,126.643 79.910 C 127.672 79.189,128.287 79.109,127.892 79.748 C 127.718 80.030,127.785 80.093,128.071 79.916 C 128.323 79.761,128.439 79.489,128.330 79.312 C 127.955 78.706,137.326 73.551,143.944 70.724 C 160.765 63.537,173.427 60.237,189.453 58.864 C 193.017 58.558,207.754 58.624,212.109 58.965 M196.582 59.276 C 198.677 59.346,202.104 59.346,204.199 59.276 C 206.294 59.205,204.580 59.148,200.391 59.148 C 196.201 59.148,194.487 59.205,196.582 59.276 M188.188 59.651 C 188.674 59.745,189.377 59.741,189.751 59.643 C 190.124 59.546,189.727 59.469,188.867 59.474 C 188.008 59.478,187.702 59.558,188.188 59.651 M210.645 59.644 C 211.021 59.743,211.636 59.743,212.012 59.644 C 212.388 59.546,212.080 59.466,211.328 59.466 C 210.576 59.466,210.269 59.546,210.645 59.644 M94.310 85.462 C 94.054 85.634,94.432 86.189,95.286 86.898 C 96.419 87.839,96.525 87.875,95.851 87.094 C 95.394 86.565,94.955 85.919,94.874 85.657 C 94.793 85.395,94.539 85.307,94.310 85.462 M283.398 85.938 C 283.787 86.367,283.983 86.719,283.833 86.719 C 283.684 86.719,283.184 86.367,282.723 85.938 C 282.261 85.508,282.066 85.156,282.288 85.156 C 282.510 85.156,283.010 85.508,283.398 85.938 M129.892 99.535 C 129.656 99.771,117.188 87.430,117.188 86.960 C 117.188 86.747,120.083 89.451,123.623 92.970 C 127.162 96.490,129.983 99.444,129.892 99.535 M304.099 87.502 C 303.709 87.933,303.305 88.201,303.202 88.098 C 302.939 87.835,303.914 86.719,304.405 86.719 C 304.627 86.719,304.489 87.071,304.099 87.502 M280.093 89.633 C 279.372 90.377,278.591 90.876,278.356 90.742 C 278.122 90.609,278.067 90.650,278.234 90.834 C 278.401 91.018,277.347 92.409,275.892 93.924 C 274.436 95.440,275.134 94.837,277.443 92.585 C 279.752 90.333,281.641 88.443,281.641 88.386 C 281.641 88.113,281.303 88.385,280.093 89.633 M97.478 89.426 C 97.354 89.626,97.432 89.900,97.650 90.035 C 97.868 90.170,98.047 90.155,98.047 90.002 C 98.047 89.848,98.442 90.056,98.926 90.464 C 99.717 91.132,99.711 91.099,98.858 90.134 C 97.792 88.928,97.787 88.926,97.478 89.426 M203.335 96.140 C 204.401 97.240,204.902 97.949,204.448 97.717 C 203.348 97.155,200.682 94.141,201.284 94.141 C 201.346 94.141,202.269 95.040,203.335 96.140 M295.682 95.996 L 294.336 97.461 295.801 96.115 C 297.164 94.862,297.445 94.531,297.147 94.531 C 297.082 94.531,296.422 95.190,295.682 95.996 M179.398 113.752 L 161.770 131.388 157.252 126.875 C 154.767 124.392,152.734 122.211,152.734 122.027 C 152.734 121.843,154.757 123.709,157.229 126.175 L 161.725 130.657 179.186 113.196 C 188.789 103.593,196.732 95.821,196.837 95.925 C 196.941 96.030,189.094 104.052,179.398 113.752 M109.754 99.793 C 111.349 101.398,112.565 102.799,112.458 102.907 C 112.351 103.014,110.870 101.701,109.168 99.988 C 107.466 98.276,106.249 96.875,106.464 96.875 C 106.679 96.875,108.160 98.188,109.754 99.793 M272.074 97.204 C 272.183 97.313,271.876 97.855,271.392 98.409 C 270.676 99.225,270.749 99.199,271.779 98.267 C 273.252 96.933,273.214 97.005,272.461 97.005 C 272.139 97.005,271.964 97.095,272.074 97.204 M304.294 106.934 L 294.336 116.992 304.395 107.034 C 309.927 101.557,314.453 97.031,314.453 96.976 C 314.453 96.699,313.548 97.587,304.294 106.934 M88.701 100.275 L 89.648 101.332 88.693 100.730 C 88.168 100.399,87.670 99.924,87.587 99.674 C 87.347 98.956,87.679 99.135,88.701 100.275 M269.723 100.006 C 269.588 100.225,269.270 100.284,269.016 100.139 C 268.762 99.994,268.690 100.024,268.856 100.206 C 269.248 100.637,266.399 103.557,265.892 103.244 C 265.679 103.112,265.611 103.176,265.740 103.386 C 266.054 103.894,260.015 109.877,259.585 109.485 C 259.400 109.317,259.356 109.368,259.487 109.597 C 259.794 110.138,250.655 119.265,250.211 118.861 C 250.026 118.693,249.984 118.746,250.117 118.979 C 250.387 119.455,247.564 122.397,247.143 122.078 C 246.996 121.966,246.966 121.996,247.078 122.143 C 247.387 122.550,244.461 125.394,244.017 125.119 C 243.804 124.987,243.737 125.054,243.869 125.267 C 244.182 125.774,241.262 128.623,240.831 128.231 C 240.649 128.065,240.610 128.124,240.746 128.361 C 240.881 128.599,240.558 129.200,240.027 129.699 L 239.063 130.605 237.988 129.669 L 236.914 128.733 237.992 129.889 L 239.071 131.045 254.789 115.327 C 263.434 106.682,270.385 99.609,270.237 99.609 C 270.089 99.609,269.858 99.788,269.723 100.006 M132.813 102.075 C 132.813 102.143,133.384 102.714,134.082 103.345 L 135.352 104.492 134.204 103.223 C 133.135 102.039,132.813 101.774,132.813 102.075 M210.754 103.829 C 210.492 104.092,209.375 103.118,209.375 102.626 C 209.375 102.404,209.728 102.542,210.159 102.932 C 210.590 103.322,210.858 103.726,210.754 103.829 M285.718 105.957 L 284.570 107.227 285.840 106.079 C 286.538 105.448,287.109 104.877,287.109 104.810 C 287.109 104.508,286.787 104.774,285.718 105.957 M124.875 114.641 C 128.891 118.611,132.092 121.944,131.988 122.048 C 131.884 122.152,128.470 118.904,124.400 114.829 C 120.330 110.755,117.129 107.422,117.287 107.422 C 117.445 107.422,120.860 110.670,124.875 114.641 M282.983 108.691 L 281.836 109.961 283.105 108.814 C 283.804 108.183,284.375 107.611,284.375 107.544 C 284.375 107.242,284.053 107.508,282.983 108.691 M105.083 116.295 C 108.625 119.886,111.403 122.742,111.255 122.642 C 110.354 122.033,98.438 110.372,98.438 110.099 C 98.438 109.555,98.391 109.511,105.083 116.295 M278.516 113.086 C 276.915 114.697,275.693 116.016,275.801 116.016 C 275.908 116.016,277.306 114.697,278.906 113.086 C 280.507 111.475,281.728 110.156,281.621 110.156 C 281.514 110.156,280.116 111.475,278.516 113.086 M213.990 126.596 C 221.012 133.508,226.825 139.361,226.907 139.601 C 226.989 139.842,226.462 139.512,225.736 138.867 C 224.683 137.932,224.595 137.898,225.298 138.701 C 225.783 139.254,226.090 139.825,225.980 139.970 C 225.871 140.116,225.902 140.143,226.050 140.031 C 226.471 139.712,229.293 142.654,229.023 143.130 C 228.890 143.364,228.931 143.418,229.115 143.251 C 229.299 143.084,230.601 144.050,232.010 145.397 C 233.418 146.745,232.813 146.027,230.664 143.801 C 228.516 141.576,226.971 139.819,227.232 139.897 C 228.163 140.176,238.645 150.900,238.402 151.325 C 238.267 151.563,238.302 151.626,238.480 151.464 C 238.844 151.134,240.308 152.299,240.052 152.714 C 239.961 152.860,243.524 156.572,247.968 160.963 C 252.413 165.353,254.648 167.495,252.936 165.723 C 251.224 163.950,249.992 162.500,250.198 162.500 C 250.749 162.500,259.375 171.193,259.375 171.748 C 259.375 172.738,260.264 172.700,261.346 171.663 C 261.965 171.069,262.401 170.468,262.313 170.327 C 262.226 170.185,273.746 158.479,287.913 144.313 C 302.080 130.147,313.672 118.757,313.672 119.002 C 313.672 119.247,313.960 119.558,314.313 119.694 C 314.849 119.899,314.873 119.842,314.461 119.345 C 313.812 118.563,314.225 118.577,315.011 119.364 C 315.722 120.074,315.841 120.882,315.174 120.471 C 314.892 120.296,314.829 120.364,315.006 120.649 C 315.161 120.901,315.437 121.015,315.619 120.902 C 316.003 120.665,320.245 127.300,322.599 131.822 C 324.273 135.035,324.526 135.783,323.789 135.327 C 323.512 135.156,323.531 135.391,323.842 135.988 C 324.518 137.285,324.754 137.459,324.436 136.426 C 323.839 134.481,324.747 135.735,326.174 138.825 C 329.535 146.099,333.496 156.787,334.731 161.914 C 334.938 162.773,335.558 165.322,336.109 167.578 C 339.164 180.082,340.428 200.426,338.873 212.052 C 337.404 223.035,336.951 225.380,334.601 234.180 C 332.887 240.596,331.838 243.578,331.335 243.470 C 331.117 243.424,331.020 243.696,331.119 244.074 C 331.371 245.037,329.524 249.805,328.899 249.805 C 328.617 249.805,328.313 250.068,328.225 250.391 C 328.083 250.911,328.116 250.911,328.517 250.391 C 330.049 248.405,326.564 256.730,323.285 262.891 C 322.427 264.502,321.389 266.479,320.978 267.285 C 320.567 268.091,319.992 268.750,319.699 268.750 C 319.407 268.750,318.976 269.146,318.742 269.629 C 318.333 270.473,318.340 270.478,318.924 269.750 C 319.670 268.818,319.738 269.490,318.999 270.500 C 318.017 271.844,314.844 270.695,314.844 268.994 C 314.844 268.780,315.372 269.110,316.018 269.729 C 316.930 270.603,319.068 271.673,318.232 270.837 C 318.123 270.727,317.935 270.697,317.815 270.768 C 317.695 270.840,316.186 269.496,314.462 267.783 C 312.739 266.069,311.328 264.811,311.328 264.986 C 311.328 265.162,312.124 266.018,313.096 266.888 C 314.068 267.758,314.769 268.565,314.653 268.680 C 314.144 269.189,261.344 216.521,261.283 215.443 C 261.244 214.756,261.213 214.743,261.055 215.353 C 260.901 215.945,260.775 215.976,260.261 215.550 C 259.733 215.111,259.108 215.616,255.693 219.240 C 253.517 221.548,251.583 223.438,251.394 223.438 C 251.205 223.437,251.369 223.086,251.758 222.656 C 252.147 222.227,252.391 221.875,252.301 221.875 C 252.211 221.875,249.942 224.116,247.260 226.855 L 242.383 231.835 246.777 227.545 C 252.557 221.903,252.425 222.671,246.582 228.679 C 242.357 233.024,240.109 235.028,241.992 232.772 L 242.773 231.836 241.910 232.566 C 241.435 232.968,241.084 233.411,241.129 233.551 C 241.258 233.953,238.235 237.500,237.762 237.500 C 237.529 237.500,238.114 236.709,239.063 235.742 C 240.011 234.775,240.704 233.984,240.602 233.984 C 240.500 233.984,238.398 236.049,235.931 238.573 C 233.464 241.096,232.808 241.848,234.473 240.243 C 236.138 238.637,237.500 237.500,237.500 237.715 C 237.500 237.931,235.654 239.935,233.398 242.169 C 231.143 244.403,229.297 246.395,229.297 246.595 C 229.297 246.795,229.035 246.858,228.716 246.736 C 228.396 246.613,228.176 246.650,228.227 246.818 C 228.337 247.178,226.171 249.724,225.363 250.186 C 225.056 250.362,225.500 249.776,226.349 248.886 C 227.198 247.995,227.810 247.266,227.708 247.266 C 227.607 247.266,225.857 248.972,223.820 251.058 C 221.784 253.144,220.513 254.523,220.996 254.123 C 221.479 253.722,221.875 253.543,221.875 253.725 C 221.875 254.208,214.355 261.704,214.055 261.519 C 213.916 261.433,213.040 262.138,212.109 263.086 C 211.179 264.034,210.227 264.701,209.994 264.569 C 209.761 264.436,209.708 264.479,209.876 264.664 C 210.045 264.849,208.287 266.941,205.970 269.314 C 203.653 271.686,202.856 272.579,204.199 271.299 C 205.542 270.018,206.641 269.144,206.641 269.356 C 206.641 269.569,205.035 271.321,203.072 273.250 C 201.110 275.179,199.633 276.526,199.791 276.243 C 199.990 275.887,199.857 275.767,199.356 275.853 C 198.938 275.924,198.674 275.770,198.730 275.488 C 198.784 275.220,198.594 275.000,198.307 275.000 C 197.748 275.000,187.790 265.130,187.553 264.341 C 187.474 264.080,189.013 265.446,190.971 267.375 C 192.929 269.304,194.531 270.796,194.531 270.690 C 194.531 270.584,192.047 268.039,189.011 265.034 C 185.975 262.029,183.612 259.790,183.761 260.059 C 184.202 260.858,183.793 260.617,182.783 259.484 C 182.084 258.700,182.040 258.572,182.617 258.996 C 183.339 259.526,183.358 259.518,182.866 258.891 C 182.573 258.517,182.203 258.293,182.043 258.391 C 181.883 258.490,179.222 256.021,176.130 252.904 C 170.299 247.026,168.207 244.384,172.903 248.828 L 175.586 251.367 172.873 248.546 C 171.381 246.995,170.072 245.814,169.964 245.922 C 169.710 246.176,162.891 239.398,162.891 238.892 C 162.891 238.681,163.726 239.293,164.746 240.250 L 166.602 241.992 164.684 239.962 C 163.629 238.846,162.574 237.967,162.340 238.009 C 162.106 238.051,161.962 237.853,162.021 237.569 C 162.080 237.284,161.974 237.147,161.784 237.264 C 161.435 237.480,148.828 224.549,148.828 223.975 C 148.828 223.803,149.751 224.534,150.879 225.599 C 152.411 227.047,152.296 226.875,150.421 224.920 C 149.041 223.481,147.790 222.378,147.642 222.470 C 147.494 222.561,145.759 220.955,143.787 218.900 C 141.427 216.441,140.006 215.243,139.632 215.394 C 139.319 215.521,138.770 215.743,138.412 215.887 C 137.938 216.078,137.849 216.008,138.082 215.631 C 138.297 215.284,138.251 215.207,137.945 215.396 C 137.693 215.552,137.597 215.857,137.732 216.074 C 137.995 216.501,136.041 218.750,135.406 218.750 C 135.194 218.750,135.440 218.267,135.952 217.676 C 136.465 217.085,124.755 228.694,109.929 243.473 C 95.104 258.252,82.822 270.205,82.635 270.035 C 82.447 269.864,82.433 269.963,82.605 270.259 C 82.827 270.643,85.400 268.307,91.847 261.864 C 96.761 256.954,100.781 253.112,100.781 253.327 C 100.781 254.141,83.368 271.133,82.769 270.903 C 81.338 270.353,74.484 257.547,71.134 249.159 C 58.109 216.557,58.005 180.800,70.834 146.680 C 72.332 142.694,72.290 142.769,72.691 143.373 C 72.971 143.795,73.015 143.688,72.858 142.969 C 72.478 141.220,81.845 123.035,82.816 123.635 C 82.999 123.748,83.276 123.635,83.432 123.384 C 83.608 123.098,83.545 123.031,83.263 123.205 C 83.015 123.358,82.813 123.368,82.813 123.226 C 82.813 122.684,85.376 118.771,85.860 118.575 C 86.140 118.461,86.273 118.524,86.155 118.714 C 85.964 119.023,86.825 119.605,87.603 119.693 C 88.197 119.760,98.014 129.815,97.809 130.147 C 97.693 130.335,97.823 130.440,98.098 130.381 C 98.372 130.322,98.605 130.537,98.615 130.859 C 98.625 131.181,98.969 131.445,99.380 131.445 C 99.792 131.445,100.202 131.665,100.292 131.934 C 100.402 132.261,100.220 132.337,99.740 132.165 C 99.346 132.023,99.139 132.036,99.281 132.194 C 99.422 132.351,99.862 132.535,100.257 132.601 C 100.653 132.667,100.943 132.885,100.903 133.086 C 100.862 133.287,105.256 137.834,110.667 143.191 C 116.079 148.547,117.606 149.966,114.062 146.343 C 110.517 142.721,107.828 139.820,108.085 139.898 C 108.914 140.148,127.349 158.660,127.127 159.019 C 127.009 159.210,127.141 159.278,127.421 159.171 C 127.714 159.059,130.583 161.632,134.175 165.230 C 141.368 172.433,140.627 172.102,143.359 169.336 C 145.537 167.131,146.969 166.337,145.297 168.262 C 144.783 168.853,148.086 165.653,152.636 161.151 C 157.186 156.649,160.829 152.886,160.731 152.788 C 160.403 152.460,161.412 151.568,161.823 151.822 C 162.048 151.961,162.115 151.887,161.972 151.657 C 161.689 151.198,164.288 148.574,164.871 148.730 C 165.071 148.784,165.190 148.608,165.137 148.340 C 165.083 148.071,165.272 147.900,165.556 147.959 C 165.841 148.018,165.958 147.879,165.817 147.650 C 165.553 147.223,167.519 145.430,168.059 145.605 C 168.224 145.659,168.315 145.483,168.262 145.215 C 168.208 144.946,168.397 144.775,168.681 144.834 C 168.966 144.893,169.098 144.778,168.975 144.579 C 168.852 144.380,170.428 142.574,172.477 140.566 C 175.876 137.233,177.494 135.918,176.789 137.059 C 176.230 137.963,176.846 137.434,179.114 135.059 L 181.445 132.617 179.199 134.752 C 177.964 135.927,176.953 136.699,176.953 136.469 C 176.953 136.239,177.920 135.136,179.102 134.019 C 180.283 132.901,181.250 131.907,181.250 131.808 C 181.250 131.492,183.776 129.320,184.159 129.308 C 184.362 129.302,183.927 129.956,183.191 130.762 C 182.456 131.567,185.754 128.367,190.522 123.651 C 195.289 118.934,199.110 114.995,199.012 114.898 C 198.624 114.510,199.708 113.736,200.441 113.877 C 200.870 113.959,206.967 119.683,213.990 126.596 M208.594 122.461 C 213.209 127.080,217.073 130.859,217.181 130.859 C 217.288 130.859,213.600 127.080,208.984 122.461 C 204.369 117.842,200.505 114.063,200.397 114.063 C 200.290 114.063,203.978 117.842,208.594 122.461 M222.863 115.548 C 222.601 115.811,221.484 114.836,221.484 114.345 C 221.484 114.123,221.837 114.261,222.268 114.651 C 222.699 115.041,222.967 115.445,222.863 115.548 M191.616 122.251 C 187.761 126.111,184.524 129.185,184.422 129.083 C 184.192 128.854,197.835 115.234,198.294 115.234 C 198.476 115.234,195.471 118.392,191.616 122.251 M269.316 122.285 C 266.105 125.519,263.395 128.287,263.295 128.438 C 263.195 128.588,265.876 125.988,269.252 122.661 C 272.628 119.333,275.391 116.565,275.391 116.509 C 275.391 116.210,274.684 116.881,269.316 122.285 M304.198 128.756 C 299.311 133.615,295.313 137.680,295.313 137.789 C 295.313 137.897,295.548 137.791,295.837 137.551 C 296.125 137.312,296.505 137.246,296.681 137.406 C 296.856 137.565,296.894 137.508,296.764 137.279 C 296.541 136.886,311.752 121.330,312.127 121.568 C 312.225 121.629,312.260 121.606,312.206 121.516 C 312.152 121.426,312.399 121.031,312.755 120.637 C 313.111 120.244,313.331 119.922,313.243 119.922 C 313.155 119.922,309.085 123.897,304.198 128.756 M127.143 138.222 C 126.927 138.438,117.969 129.467,117.969 129.035 C 117.969 128.863,120.072 130.821,122.643 133.385 C 125.214 135.949,127.239 138.126,127.143 138.222 M258.182 133.496 L 256.836 134.961 258.301 133.615 C 259.664 132.362,259.945 132.031,259.647 132.031 C 259.582 132.031,258.922 132.690,258.182 133.496 M104.225 135.722 C 106.077 137.482,108.087 139.844,107.733 139.844 C 107.660 139.844,106.110 138.326,104.288 136.470 C 100.776 132.893,100.735 132.405,104.225 135.722 M144.141 134.497 C 144.141 134.564,144.712 135.136,145.410 135.767 L 146.680 136.914 145.532 135.645 C 144.463 134.461,144.141 134.195,144.141 134.497 M221.875 135.278 C 221.875 135.346,222.446 135.917,223.145 136.548 L 224.414 137.695 223.267 136.426 C 222.197 135.242,221.875 134.977,221.875 135.278 M273.001 139.280 C 271.630 140.703,270.156 142.047,269.727 142.267 C 269.297 142.486,270.342 141.245,272.049 139.509 C 273.757 137.772,275.230 136.428,275.324 136.522 C 275.418 136.616,274.372 137.857,273.001 139.280 M288.770 144.148 C 285.493 147.369,282.813 150.132,282.813 150.290 C 282.813 150.448,285.537 147.856,288.867 144.531 C 294.448 138.959,295.105 138.271,294.824 138.287 C 294.771 138.290,292.046 140.927,288.770 144.148 M173.034 140.918 L 170.898 143.164 173.145 141.029 C 175.231 139.045,175.570 138.672,175.280 138.672 C 175.219 138.672,174.208 139.683,173.034 140.918 M254.102 146.094 C 256.242 148.242,257.862 150.000,257.702 150.000 C 257.542 150.000,255.649 148.242,253.497 146.094 C 251.344 143.945,249.723 142.188,249.896 142.188 C 250.069 142.188,251.961 143.945,254.102 146.094 M197.252 147.155 C 196.078 148.383,195.513 149.059,195.996 148.657 C 196.479 148.255,196.875 148.092,196.875 148.295 C 196.875 148.859,191.770 154.327,191.436 154.120 C 191.275 154.020,190.455 154.678,189.614 155.582 L 188.086 157.226 189.551 155.880 C 190.356 155.140,191.016 154.709,191.016 154.922 C 191.016 155.430,188.096 158.278,187.839 158.022 C 187.731 157.913,187.039 158.481,186.301 159.283 L 184.961 160.742 186.426 159.396 C 187.231 158.656,187.891 158.224,187.891 158.438 C 187.891 158.944,184.972 161.795,184.716 161.539 C 184.608 161.431,183.828 162.086,182.982 162.995 L 181.445 164.648 183.105 163.104 C 184.019 162.255,184.766 161.735,184.766 161.949 C 184.766 162.457,181.457 165.702,181.201 165.446 C 181.093 165.337,180.312 165.993,179.467 166.902 L 177.930 168.555 179.590 167.011 C 180.503 166.161,181.250 165.604,181.250 165.772 C 181.250 166.256,176.084 171.875,175.639 171.875 C 175.418 171.875,175.843 171.216,176.584 170.410 L 177.930 168.945 176.480 170.277 C 175.683 171.009,175.130 171.769,175.251 171.966 C 175.509 172.382,173.846 174.276,173.443 174.027 C 173.293 173.934,172.572 174.507,171.839 175.300 C 171.107 176.093,170.929 176.393,171.444 175.968 C 173.136 174.571,172.120 176.075,169.208 179.280 C 167.634 181.013,166.209 182.346,166.042 182.243 C 165.875 182.140,165.318 182.532,164.803 183.115 C 163.940 184.092,163.936 184.116,164.746 183.433 C 165.229 183.025,165.625 182.860,165.625 183.066 C 165.625 183.559,163.091 186.008,162.841 185.757 C 162.734 185.651,161.867 186.394,160.913 187.409 C 159.534 188.878,159.479 188.980,160.645 187.910 C 161.450 187.170,162.109 186.739,162.109 186.951 C 162.109 187.455,158.801 190.702,158.546 190.447 C 158.439 190.340,157.510 191.106,156.482 192.150 C 155.158 193.494,154.755 194.136,155.101 194.350 C 155.388 194.527,155.491 194.492,155.351 194.266 C 155.219 194.053,155.895 193.111,156.853 192.171 C 157.810 191.231,158.594 190.642,158.594 190.861 C 158.594 191.081,158.066 191.765,157.422 192.383 C 155.677 194.055,155.360 193.831,163.672 196.791 C 164.854 197.212,168.809 198.651,172.461 199.990 C 176.113 201.328,179.980 202.735,181.055 203.115 C 184.123 204.201,191.324 206.842,194.424 208.019 C 195.976 208.608,197.176 209.204,197.091 209.342 C 196.810 209.796,201.328 209.127,203.125 208.448 C 204.092 208.083,207.168 206.984,209.961 206.005 C 215.160 204.183,217.203 203.464,224.023 201.059 C 226.172 200.301,231.192 198.546,235.178 197.158 C 243.152 194.383,244.883 193.623,244.196 193.199 C 243.951 193.047,243.750 192.727,243.750 192.487 C 243.750 192.247,244.191 192.466,244.731 192.973 C 245.460 193.658,245.585 193.974,245.219 194.207 C 244.861 194.434,244.854 194.521,245.192 194.525 C 246.144 194.538,246.032 193.837,244.908 192.760 C 244.271 192.150,243.750 191.809,243.750 192.003 C 243.750 192.197,242.783 191.401,241.602 190.234 C 239.302 187.964,238.607 186.591,240.723 188.499 C 241.668 189.351,241.602 189.225,240.464 188.002 C 239.623 187.099,238.799 186.445,238.632 186.548 C 238.315 186.744,234.683 183.069,234.419 182.285 C 234.336 182.038,234.775 182.275,235.396 182.811 L 236.523 183.786 235.389 182.532 C 234.766 181.842,234.122 181.360,233.960 181.461 C 233.648 181.653,225.301 172.916,225.049 172.134 C 224.968 171.884,225.671 172.382,226.611 173.240 C 227.923 174.437,227.826 174.281,226.195 172.566 C 225.026 171.337,223.981 170.420,223.873 170.528 C 223.620 170.781,219.531 166.749,219.531 166.245 C 219.531 166.035,220.190 166.467,220.996 167.207 C 222.148 168.264,222.089 168.155,220.719 166.697 C 219.041 164.911,218.438 164.414,218.945 165.234 C 219.534 166.186,218.635 165.447,216.532 163.248 C 213.716 160.305,213.302 159.348,215.870 161.718 C 217.725 163.430,217.719 163.417,215.638 161.229 C 213.555 159.039,212.955 158.531,213.508 159.426 C 214.277 160.669,212.679 159.168,209.645 155.796 C 206.188 151.953,205.228 150.493,207.520 152.564 L 208.789 153.711 207.646 152.445 C 207.017 151.749,206.412 151.271,206.301 151.381 C 206.060 151.622,201.953 147.632,201.953 147.158 C 201.953 146.977,202.173 146.957,202.441 147.114 C 202.710 147.271,202.595 147.018,202.186 146.552 C 201.365 145.616,200.966 145.431,201.411 146.191 C 201.568 146.460,201.332 146.361,200.887 145.971 C 200.360 145.509,199.988 145.407,199.820 145.678 C 199.679 145.907,199.376 146.094,199.148 146.094 C 198.886 146.094,198.912 145.877,199.219 145.508 C 200.343 144.154,199.234 145.082,197.252 147.155 M198.816 146.387 C 198.809 146.548,198.326 147.017,197.742 147.430 L 196.680 148.179 197.627 147.137 C 198.622 146.041,198.836 145.906,198.816 146.387 M142.394 149.988 C 140.761 151.661,139.923 151.637,139.021 149.893 C 138.628 149.134,138.717 149.161,139.723 150.104 L 140.875 151.184 142.157 149.589 C 142.861 148.713,143.541 148.098,143.666 148.223 C 143.792 148.349,143.219 149.143,142.394 149.988 M163.283 150.194 C 162.779 150.730,162.441 151.234,162.531 151.314 C 162.621 151.394,163.104 150.955,163.604 150.339 C 164.722 148.960,164.525 148.871,163.283 150.194 M193.949 150.329 C 194.058 150.438,193.751 150.980,193.267 151.534 C 192.551 152.350,192.624 152.324,193.654 151.392 C 195.127 150.058,195.089 150.130,194.336 150.130 C 194.014 150.130,193.839 150.220,193.949 150.329 M279.395 153.537 C 277.837 155.043,276.563 156.375,276.563 156.496 C 276.563 156.617,277.457 155.864,278.551 154.823 C 279.645 153.782,280.743 152.988,280.992 153.060 C 281.242 153.132,281.312 153.057,281.149 152.894 C 280.986 152.730,281.236 152.188,281.705 151.689 C 283.440 149.842,282.140 150.882,279.395 153.537 M153.530 159.947 C 149.568 163.913,146.230 167.063,146.112 166.946 C 145.890 166.723,160.030 152.734,160.478 152.734 C 160.619 152.734,157.492 155.980,153.530 159.947 M245.348 157.394 C 248.009 159.956,250.092 162.148,249.976 162.263 C 249.861 162.379,247.580 160.282,244.909 157.604 C 238.735 151.416,239.006 151.286,245.348 157.394 M211.133 156.641 C 211.972 157.500,212.746 158.203,212.854 158.203 C 212.961 158.203,212.363 157.500,211.523 156.641 C 210.684 155.781,209.910 155.078,209.802 155.078 C 209.695 155.078,210.294 155.781,211.133 156.641 M272.678 160.209 C 270.435 162.488,270.511 162.370,271.289 162.370 C 271.611 162.370,271.783 162.278,271.670 162.165 C 271.558 162.052,272.298 161.115,273.316 160.082 C 274.333 159.048,275.050 158.203,274.909 158.203 C 274.768 158.203,273.764 159.106,272.678 160.209 M131.563 163.790 C 133.553 165.788,135.088 167.546,134.974 167.696 C 134.859 167.846,134.888 167.876,135.037 167.763 C 135.186 167.650,136.372 168.571,137.673 169.810 C 138.974 171.049,137.405 169.384,134.185 166.110 C 130.965 162.835,128.243 160.156,128.138 160.156 C 128.032 160.156,129.573 161.791,131.563 163.790 M265.039 167.761 C 264.395 168.290,264.056 168.728,264.287 168.736 C 264.518 168.744,265.120 168.311,265.625 167.773 C 266.791 166.532,266.544 166.527,265.039 167.761 M261.328 171.289 C 260.824 171.826,260.238 172.266,260.027 172.266 C 259.817 172.266,260.155 171.826,260.779 171.290 C 262.235 170.037,262.504 170.037,261.328 171.289 M230.664 177.734 C 231.503 178.594,232.278 179.297,232.385 179.297 C 232.493 179.297,231.894 178.594,231.055 177.734 C 230.216 176.875,229.441 176.172,229.334 176.172 C 229.226 176.172,229.825 176.875,230.664 177.734 M168.139 179.395 L 166.992 180.664 168.262 179.517 C 168.960 178.886,169.531 178.314,169.531 178.247 C 169.531 177.945,169.209 178.211,168.139 179.395 M62.591 182.813 C 62.591 183.564,62.671 183.872,62.769 183.496 C 62.868 183.120,62.868 182.505,62.769 182.129 C 62.671 181.753,62.591 182.061,62.591 182.813 M46.583 184.570 C 46.587 185.430,46.667 185.735,46.761 185.249 C 46.854 184.763,46.851 184.060,46.753 183.687 C 46.655 183.313,46.579 183.711,46.583 184.570 M353.622 185.938 C 353.622 186.904,353.698 187.300,353.791 186.816 C 353.884 186.333,353.884 185.542,353.791 185.059 C 353.698 184.575,353.622 184.971,353.622 185.938 M338.388 186.719 C 338.388 187.686,338.464 188.081,338.557 187.598 C 338.650 187.114,338.650 186.323,338.557 185.840 C 338.464 185.356,338.388 185.752,338.388 186.719 M62.221 188.086 C 62.224 189.160,62.300 189.553,62.390 188.959 C 62.479 188.366,62.477 187.487,62.384 187.006 C 62.292 186.526,62.218 187.012,62.221 188.086 M46.215 190.820 C 46.217 192.109,46.290 192.590,46.377 191.888 C 46.464 191.185,46.462 190.131,46.373 189.544 C 46.284 188.957,46.213 189.531,46.215 190.820 M338.808 193.750 C 338.808 195.576,338.876 196.323,338.958 195.410 C 339.040 194.497,339.040 193.003,338.958 192.090 C 338.876 191.177,338.808 191.924,338.808 193.750 M354.043 193.750 C 354.043 195.576,354.110 196.323,354.192 195.410 C 354.275 194.497,354.275 193.003,354.192 192.090 C 354.110 191.177,354.043 191.924,354.043 193.750 M61.873 197.461 C 61.873 200.469,61.935 201.648,62.009 200.081 C 62.083 198.514,62.083 196.053,62.008 194.612 C 61.933 193.171,61.872 194.453,61.873 197.461 M338.806 201.367 C 338.807 203.086,338.876 203.740,338.958 202.822 C 339.041 201.903,339.040 200.497,338.956 199.697 C 338.872 198.897,338.804 199.648,338.806 201.367 M151.668 201.145 C 151.699 201.560,151.820 201.883,151.937 201.864 C 152.457 201.778,153.516 202.472,153.516 202.898 C 153.516 203.157,154.043 203.875,154.688 204.492 C 155.332 205.110,155.859 205.460,155.859 205.270 C 155.859 205.080,156.475 205.521,157.227 206.250 C 158.634 207.614,159.128 208.712,157.910 207.769 C 157.261 207.266,157.261 207.280,157.911 208.046 C 158.287 208.490,158.507 208.970,158.399 209.114 C 158.291 209.257,158.319 209.289,158.460 209.183 C 158.602 209.078,158.953 209.187,159.241 209.426 C 159.530 209.666,159.766 209.717,159.766 209.542 C 159.766 209.366,160.381 209.818,161.133 210.547 C 162.856 212.217,162.941 213.045,161.230 211.499 L 159.961 210.352 161.104 211.617 C 161.733 212.313,162.338 212.792,162.449 212.681 C 162.707 212.423,166.797 216.448,166.797 216.960 C 166.797 217.173,166.050 216.651,165.137 215.802 L 163.477 214.258 165.014 215.911 C 165.859 216.820,166.637 217.478,166.743 217.372 C 166.992 217.123,168.750 218.773,168.750 219.257 C 168.750 219.460,168.442 219.394,168.066 219.109 C 167.690 218.825,168.071 219.323,168.911 220.217 C 169.752 221.111,170.582 221.754,170.757 221.646 C 171.103 221.433,173.407 223.797,173.426 224.384 C 173.432 224.583,172.954 224.324,172.363 223.808 C 171.772 223.292,172.422 224.048,173.806 225.487 C 175.191 226.926,176.410 228.017,176.515 227.912 C 176.760 227.667,179.297 230.112,179.297 230.593 C 179.297 230.792,178.989 230.723,178.613 230.439 C 178.237 230.156,178.802 230.837,179.868 231.954 C 181.796 233.973,182.608 234.606,181.598 233.301 C 181.157 232.732,181.213 232.741,181.931 233.353 C 182.406 233.758,182.682 234.285,182.545 234.525 C 182.409 234.765,182.447 234.824,182.630 234.657 C 182.986 234.334,187.500 238.575,187.500 239.232 C 187.500 239.446,186.489 238.661,185.254 237.487 L 183.008 235.352 185.125 237.580 C 186.290 238.805,187.367 239.731,187.519 239.637 C 187.831 239.444,193.082 244.689,193.313 245.424 C 193.395 245.685,192.931 245.401,192.282 244.792 C 191.379 243.946,191.031 243.808,190.801 244.206 C 190.635 244.492,190.648 244.592,190.828 244.428 C 191.009 244.264,191.652 244.604,192.258 245.185 C 192.864 245.765,193.359 246.081,193.359 245.887 C 193.359 245.693,194.326 246.489,195.508 247.656 C 198.023 250.140,198.430 251.268,195.996 249.008 C 195.083 248.161,195.479 248.692,196.875 250.188 C 198.271 251.685,199.464 252.993,199.526 253.097 C 199.588 253.200,200.730 252.151,202.065 250.767 L 204.492 248.251 202.116 250.513 C 199.921 252.603,199.697 252.724,199.186 252.096 C 198.700 251.499,198.710 251.445,199.261 251.651 C 199.696 251.814,200.830 250.941,202.943 248.814 C 204.623 247.125,206.111 245.813,206.250 245.898 C 206.389 245.984,207.896 244.615,209.599 242.855 C 211.302 241.095,211.860 240.437,210.840 241.393 C 208.046 244.010,208.611 242.730,211.523 239.844 C 212.920 238.460,214.063 237.476,214.063 237.657 C 214.063 237.838,214.298 237.791,214.587 237.551 C 214.875 237.312,215.183 237.159,215.270 237.210 C 215.358 237.262,215.383 237.229,215.327 237.136 C 215.270 237.044,215.709 236.429,216.303 235.771 L 217.383 234.573 216.255 235.548 C 213.884 237.598,215.612 235.379,220.051 230.674 C 222.593 227.979,224.805 225.856,224.967 225.956 C 225.129 226.056,226.037 225.311,226.986 224.299 L 228.711 222.461 226.807 224.219 C 225.761 225.186,224.970 225.772,225.050 225.521 C 225.293 224.761,229.729 220.292,230.046 220.488 C 230.209 220.588,231.030 219.931,231.870 219.027 L 233.398 217.383 231.689 218.945 C 230.750 219.805,230.046 220.303,230.127 220.054 C 230.379 219.271,238.726 210.534,239.038 210.727 C 239.200 210.827,239.844 210.347,240.468 209.660 C 241.113 208.949,241.223 208.728,240.723 209.149 C 239.375 210.281,239.699 209.358,241.227 207.715 C 242.513 206.331,243.304 205.782,242.773 206.641 C 242.299 207.408,242.841 207.010,243.970 205.763 C 245.073 204.543,245.076 204.531,244.043 205.441 C 243.452 205.961,242.969 206.214,242.969 206.004 C 242.969 205.501,245.429 203.125,245.950 203.125 C 246.172 203.125,246.354 202.861,246.354 202.539 C 246.354 202.217,246.340 201.955,246.322 201.958 C 246.304 201.961,245.164 202.316,243.789 202.747 C 242.413 203.178,240.919 203.428,240.468 203.302 C 239.834 203.125,239.778 203.163,240.221 203.468 C 240.685 203.787,240.574 203.942,239.635 204.285 C 235.961 205.630,232.648 206.870,221.094 211.221 C 203.199 217.962,199.830 219.157,198.895 219.102 C 198.498 219.078,198.625 218.940,199.219 218.750 C 200.117 218.462,200.127 218.434,199.348 218.398 C 198.883 218.377,198.179 218.255,197.786 218.127 C 197.191 217.934,197.169 217.966,197.656 218.317 C 198.760 219.110,197.412 218.749,193.336 217.159 C 186.429 214.465,183.601 213.195,183.797 212.878 C 183.901 212.710,183.606 212.672,183.143 212.793 C 182.569 212.943,182.388 212.871,182.576 212.566 C 182.758 212.273,182.637 212.201,182.226 212.359 C 181.881 212.491,180.510 212.158,179.178 211.618 C 177.847 211.078,174.608 209.803,171.980 208.785 C 169.352 207.766,167.287 206.795,167.391 206.628 C 167.494 206.460,167.271 206.402,166.895 206.500 C 166.519 206.597,164.011 205.803,161.321 204.734 C 158.632 203.666,155.605 202.583,154.595 202.329 C 153.585 202.074,152.534 201.597,152.261 201.267 C 151.830 200.749,151.894 200.706,152.737 200.946 C 153.478 201.157,153.571 201.125,153.125 200.813 C 152.216 200.177,151.605 200.316,151.668 201.145 M246.875 200.813 C 246.428 201.125,246.521 201.158,247.266 200.950 L 248.242 200.677 247.461 201.608 L 246.680 202.539 247.559 201.795 C 248.951 200.616,248.363 199.771,246.875 200.813 M354.045 203.711 C 354.044 205.645,354.110 206.485,354.192 205.578 C 354.274 204.672,354.275 203.090,354.194 202.063 C 354.113 201.036,354.046 201.777,354.045 203.711 M155.385 204.221 C 156.158 205.384,155.810 205.301,154.658 204.048 C 154.137 203.481,153.960 203.096,154.263 203.190 C 154.567 203.285,155.072 203.749,155.385 204.221 M46.215 205.664 C 46.217 206.953,46.290 207.433,46.377 206.731 C 46.464 206.029,46.462 204.975,46.373 204.388 C 46.284 203.801,46.213 204.375,46.215 205.664 M62.226 207.422 C 62.226 208.604,62.300 209.087,62.389 208.496 C 62.479 207.905,62.479 206.938,62.389 206.348 C 62.300 205.757,62.226 206.240,62.226 207.422 M338.372 208.594 C 338.372 209.346,338.452 209.653,338.551 209.277 C 338.649 208.901,338.649 208.286,338.551 207.910 C 338.452 207.534,338.372 207.842,338.372 208.594 M353.622 211.328 C 353.622 212.295,353.698 212.690,353.791 212.207 C 353.884 211.724,353.884 210.933,353.791 210.449 C 353.698 209.966,353.622 210.361,353.622 211.328 M177.734 210.481 C 178.057 210.680,178.760 210.961,179.297 211.104 C 179.976 211.286,180.095 211.255,179.688 211.003 C 179.365 210.804,178.662 210.524,178.125 210.380 C 177.446 210.199,177.327 210.229,177.734 210.481 M337.981 212.891 C 337.981 213.643,338.062 213.950,338.160 213.574 C 338.258 213.198,338.258 212.583,338.160 212.207 C 338.062 211.831,337.981 212.139,337.981 212.891 M138.870 214.449 C 138.730 214.674,138.897 214.733,139.271 214.589 C 139.722 214.416,140.857 215.257,143.100 217.426 L 146.289 220.508 143.173 217.285 C 140.150 214.158,139.368 213.643,138.870 214.449 M256.250 217.383 C 255.301 218.350,254.613 219.141,254.720 219.141 C 254.828 219.141,255.692 218.350,256.641 217.383 C 257.589 216.416,258.278 215.625,258.170 215.625 C 258.063 215.625,257.199 216.416,256.250 217.383 M134.796 219.434 C 134.239 220.414,101.375 253.125,100.946 253.125 C 100.750 253.125,108.322 245.391,117.773 235.938 C 135.274 218.434,135.473 218.241,134.796 219.434 M170.488 220.988 C 170.768 221.717,170.559 221.604,169.502 220.456 C 168.599 219.476,168.595 219.453,169.426 219.960 C 169.905 220.252,170.383 220.715,170.488 220.988 M175.350 225.990 C 176.456 227.250,176.761 227.734,176.446 227.734 C 176.383 227.734,175.644 227.031,174.805 226.172 C 173.966 225.312,173.472 224.609,173.708 224.609 C 173.945 224.609,174.683 225.231,175.350 225.990 M221.862 229.590 L 219.727 231.836 221.973 229.701 C 224.059 227.717,224.398 227.344,224.108 227.344 C 224.047 227.344,223.036 228.354,221.862 229.590 M334.619 230.908 C 334.482 231.595,334.442 232.228,334.530 232.317 C 334.619 232.405,334.813 231.925,334.961 231.250 C 335.109 230.575,335.149 229.941,335.050 229.841 C 334.950 229.742,334.756 230.222,334.619 230.908 M157.422 232.617 C 158.806 234.014,160.026 235.156,160.134 235.156 C 160.241 235.156,159.197 234.014,157.813 232.617 C 156.428 231.221,155.208 230.078,155.101 230.078 C 154.993 230.078,156.038 231.221,157.422 232.617 M181.072 232.059 C 181.617 232.941,180.947 232.759,180.047 231.781 C 179.146 230.801,179.142 230.774,179.959 231.199 C 180.430 231.444,180.931 231.831,181.072 232.059 M259.533 236.816 C 258.790 237.694,258.790 237.695,259.601 237.012 C 260.693 236.093,260.560 236.033,263.097 238.574 L 265.340 240.820 263.236 238.388 C 260.895 235.681,260.600 235.556,259.533 236.816 M150.353 245.594 L 152.148 247.243 146.595 252.801 C 143.541 255.858,140.954 258.272,140.847 258.165 C 140.740 258.058,143.078 255.549,146.043 252.589 L 151.434 247.209 149.252 245.031 C 146.867 242.651,147.501 242.975,150.353 245.594 M207.818 244.330 C 207.092 245.079,206.399 245.592,206.277 245.470 C 206.047 245.240,208.403 242.969,208.872 242.969 C 209.018 242.969,208.544 243.581,207.818 244.330 M299.385 253.396 C 304.761 258.808,309.211 263.185,309.274 263.122 C 309.377 263.018,289.908 243.555,289.700 243.555 C 289.652 243.555,294.010 247.983,299.385 253.396 M273.828 249.414 C 274.557 250.166,275.241 250.781,275.349 250.781 C 275.456 250.781,274.948 250.166,274.219 249.414 C 273.490 248.662,272.806 248.047,272.698 248.047 C 272.591 248.047,273.099 248.662,273.828 249.414 M251.172 250.122 C 251.172 250.189,251.743 250.761,252.441 251.392 L 253.711 252.539 252.564 251.270 C 251.494 250.086,251.172 249.820,251.172 250.122 M224.188 251.795 C 223.668 252.351,222.891 252.987,222.461 253.209 C 222.031 253.430,222.371 252.890,223.217 252.008 C 224.062 251.126,224.839 250.490,224.944 250.595 C 225.048 250.699,224.708 251.239,224.188 251.795 M120.093 255.176 L 118.945 256.445 120.215 255.298 C 121.398 254.229,121.664 253.906,121.362 253.906 C 121.295 253.906,120.724 254.478,120.093 255.176 M117.166 258.105 L 115.820 259.570 117.285 258.224 C 118.649 256.971,118.930 256.641,118.631 256.641 C 118.566 256.641,117.907 257.300,117.166 258.105 M286.328 261.914 C 288.361 263.955,290.112 265.625,290.219 265.625 C 290.326 265.625,288.751 263.955,286.719 261.914 C 284.686 259.873,282.935 258.203,282.828 258.203 C 282.721 258.203,284.296 259.873,286.328 261.914 M237.654 259.051 C 237.468 259.352,237.580 259.428,237.984 259.273 C 238.320 259.144,238.715 259.158,238.862 259.304 C 239.008 259.451,239.245 259.585,239.388 259.604 C 240.353 259.729,241.032 260.332,240.822 260.878 C 240.691 261.220,240.710 261.373,240.865 261.218 C 241.178 260.905,250.000 269.468,250.000 270.084 C 250.000 270.297,249.253 269.777,248.340 268.930 C 247.427 268.082,247.695 268.452,248.936 269.751 C 250.177 271.051,251.056 272.251,250.889 272.418 C 250.723 272.585,250.850 272.663,251.172 272.591 C 251.496 272.519,251.710 272.692,251.650 272.978 C 251.591 273.263,251.690 273.405,251.870 273.294 C 252.333 273.008,283.691 304.460,283.316 304.835 C 283.147 305.004,283.271 305.085,283.594 305.013 C 283.954 304.933,284.159 305.146,284.125 305.566 C 284.096 305.942,284.271 306.251,284.516 306.252 C 285.018 306.254,282.806 308.167,282.276 308.189 C 282.089 308.197,282.177 307.896,282.472 307.520 C 282.957 306.901,282.943 306.887,282.329 307.368 C 281.955 307.661,281.733 308.037,281.836 308.204 C 281.939 308.370,281.059 309.234,279.880 310.124 C 277.503 311.919,276.232 312.570,276.754 311.725 C 276.968 311.378,276.923 311.301,276.616 311.490 C 276.365 311.646,276.246 311.914,276.352 312.086 C 276.995 313.125,260.176 322.443,252.178 325.479 C 234.062 332.355,219.554 334.945,199.414 334.900 C 188.722 334.876,187.699 334.800,176.172 333.188 C 169.450 332.249,160.439 329.800,151.486 326.481 C 145.455 324.245,131.836 317.624,131.836 316.927 C 131.836 316.676,131.676 316.325,131.480 316.146 C 131.270 315.954,131.253 316.041,131.437 316.359 C 131.652 316.730,131.580 316.837,131.207 316.701 C 130.908 316.593,130.706 316.312,130.757 316.079 C 130.808 315.845,130.632 315.734,130.366 315.833 C 129.741 316.065,125.690 313.746,125.959 313.310 C 126.071 313.128,125.858 312.740,125.484 312.447 C 124.869 311.965,124.856 311.979,125.341 312.598 C 126.483 314.054,120.841 310.490,116.309 306.892 C 115.072 305.910,114.182 304.623,115.156 305.225 C 115.328 305.331,115.693 305.060,115.966 304.621 C 116.375 303.967,116.372 303.878,115.947 304.123 C 115.187 304.562,114.153 305.613,137.458 282.279 C 149.359 270.363,159.307 260.695,159.564 260.794 C 159.821 260.892,160.279 260.657,160.582 260.272 C 161.094 259.619,161.081 259.611,160.386 260.156 C 159.736 260.666,159.663 260.667,159.829 260.167 C 160.606 257.816,161.529 258.596,180.907 277.978 C 191.084 288.156,199.596 296.484,199.821 296.484 C 200.047 296.484,205.027 291.650,210.888 285.742 C 216.749 279.834,221.646 275.000,221.770 275.000 C 221.894 275.000,221.678 275.352,221.289 275.781 C 220.900 276.211,220.656 276.563,220.745 276.563 C 220.835 276.563,223.455 273.970,226.568 270.801 L 232.227 265.039 227.051 270.112 C 224.204 272.902,221.875 275.012,221.875 274.803 C 221.875 274.470,237.486 258.594,237.812 258.594 C 237.881 258.594,237.810 258.799,237.654 259.051 M179.883 278.125 C 189.979 288.223,198.327 296.484,198.434 296.484 C 198.542 296.484,190.369 288.223,180.273 278.125 C 170.177 268.027,161.829 259.766,161.722 259.766 C 161.614 259.766,169.787 268.027,179.883 278.125 M187.500 263.996 C 187.500 264.486,184.010 261.261,183.995 260.759 C 183.989 260.553,184.775 261.161,185.742 262.109 C 186.709 263.058,187.500 263.907,187.500 263.996 M153.824 266.458 C 151.093 269.229,149.159 271.329,149.527 271.125 C 150.454 270.612,159.648 261.317,159.174 261.374 C 158.962 261.399,156.555 263.687,153.824 266.458 M210.651 265.627 C 208.700 267.560,206.959 269.141,206.782 269.141 C 206.605 269.141,208.118 267.476,210.144 265.442 C 212.170 263.408,213.910 261.827,214.012 261.929 C 214.114 262.031,212.601 263.695,210.651 265.627 M109.552 265.723 L 108.008 267.383 109.668 265.839 C 111.212 264.403,111.508 264.063,111.212 264.063 C 111.148 264.063,110.401 264.810,109.552 265.723 M293.555 269.141 C 295.263 270.859,296.749 272.266,296.857 272.266 C 296.964 272.266,295.654 270.859,293.945 269.141 C 292.237 267.422,290.751 266.016,290.643 266.016 C 290.536 266.016,291.846 267.422,293.555 269.141 M267.969 287.759 C 277.529 297.347,285.000 305.001,284.570 304.768 C 283.517 304.196,249.710 270.311,250.200 270.319 C 250.412 270.322,258.408 278.170,267.969 287.759 M136.102 284.385 C 123.569 296.959,122.721 297.830,123.864 296.963 C 124.206 296.704,124.630 296.621,124.806 296.781 C 124.981 296.940,125.018 296.882,124.887 296.651 C 124.617 296.176,130.557 290.098,130.978 290.418 C 131.127 290.532,131.157 290.502,131.043 290.353 C 130.723 289.932,136.801 283.992,137.276 284.262 C 137.507 284.393,137.560 284.351,137.394 284.169 C 136.990 283.725,139.856 280.826,140.396 281.133 C 140.629 281.266,140.683 281.224,140.514 281.039 C 140.346 280.854,142.189 278.717,144.609 276.289 C 147.030 273.861,148.912 271.875,148.791 271.875 C 148.671 271.875,142.961 277.505,136.102 284.385 M97.643 277.637 L 95.508 279.883 97.754 277.748 C 98.989 276.573,100.000 275.563,100.000 275.502 C 100.000 275.212,99.626 275.550,97.643 277.637 M302.734 278.320 C 303.463 279.072,304.147 279.688,304.255 279.688 C 304.362 279.688,303.854 279.072,303.125 278.320 C 302.396 277.568,301.712 276.953,301.605 276.953 C 301.497 276.953,302.006 277.568,302.734 278.320 M89.056 286.230 L 84.570 290.820 89.160 286.334 C 93.423 282.168,93.927 281.641,93.646 281.641 C 93.589 281.641,91.523 283.706,89.056 286.230 M306.799 282.873 C 306.643 283.125,306.690 283.219,306.906 283.085 C 307.351 282.810,310.669 286.043,310.360 286.450 C 310.248 286.598,310.277 286.627,310.425 286.515 C 310.572 286.404,311.407 286.973,312.280 287.780 C 313.153 288.588,312.377 287.712,310.555 285.835 C 306.846 282.012,307.172 282.269,306.799 282.873 M201.739 295.801 L 200.195 297.461 201.855 295.917 C 203.399 294.481,203.695 294.141,203.400 294.141 C 203.336 294.141,202.589 294.888,201.739 295.801 M121.271 299.306 C 120.421 300.214,120.092 300.653,120.540 300.282 C 120.987 299.911,121.470 299.696,121.614 299.804 C 121.757 299.912,121.786 299.881,121.676 299.736 C 121.567 299.591,121.861 299.063,122.330 298.564 C 122.799 298.065,123.100 297.656,122.999 297.656 C 122.898 297.656,122.120 298.399,121.271 299.306 M305.639 307.910 L 304.492 309.180 305.762 308.032 C 306.460 307.401,307.031 306.830,307.031 306.763 C 307.031 306.461,306.709 306.727,305.639 307.910 M96.221 310.086 C 96.802 310.691,97.142 311.335,96.978 311.515 C 96.814 311.696,96.914 311.709,97.200 311.543 C 97.672 311.271,96.029 308.984,95.362 308.984 C 95.254 308.984,95.641 309.480,96.221 310.086 M301.733 311.426 L 300.586 312.695 301.855 311.548 C 302.554 310.917,303.125 310.346,303.125 310.278 C 303.125 309.977,302.803 310.242,301.733 311.426 M274.298 313.058 C 272.484 314.341,272.228 314.708,273.761 313.830 C 274.475 313.421,275.244 312.866,275.468 312.598 C 276.046 311.907,275.775 312.014,274.298 313.058 M256.250 322.852 C 255.713 323.159,255.449 323.410,255.664 323.410 C 255.879 323.410,256.494 323.159,257.031 322.852 C 257.568 322.545,257.832 322.293,257.617 322.293 C 257.402 322.293,256.787 322.545,256.250 322.852 M213.770 333.863 C 214.146 333.961,214.761 333.961,215.137 333.863 C 215.513 333.765,215.205 333.684,214.453 333.684 C 213.701 333.684,213.394 333.765,213.770 333.863 M209.277 334.260 C 209.761 334.353,210.552 334.353,211.035 334.260 C 211.519 334.167,211.123 334.091,210.156 334.091 C 209.189 334.091,208.794 334.167,209.277 334.260 M197.381 334.666 C 199.056 334.739,201.693 334.739,203.241 334.665 C 204.788 334.591,203.418 334.531,200.195 334.531 C 196.973 334.532,195.706 334.592,197.381 334.666 M215.723 349.488 C 216.099 349.586,216.714 349.586,217.090 349.488 C 217.466 349.390,217.158 349.309,216.406 349.309 C 215.654 349.309,215.347 349.390,215.723 349.488 M189.737 349.891 C 190.431 349.978,191.661 349.979,192.472 349.894 C 193.282 349.810,192.715 349.739,191.211 349.738 C 189.707 349.736,189.044 349.805,189.737 349.891 M209.869 349.890 C 210.462 349.979,211.341 349.977,211.822 349.884 C 212.302 349.792,211.816 349.718,210.742 349.721 C 209.668 349.724,209.275 349.800,209.869 349.890 " stroke="none" fill="#ebc36b" fill-rule="evenodd"></path><path id="path1" d="M197.119 44.026 C 197.075 44.071,194.936 44.204,192.367 44.322 C 189.798 44.440,187.080 44.617,186.328 44.716 C 185.576 44.815,183.203 45.098,181.055 45.344 C 175.400 45.992,175.095 46.037,171.875 46.693 C 170.264 47.021,168.506 47.349,167.969 47.422 C 167.432 47.494,166.729 47.650,166.406 47.767 C 165.719 48.017,158.580 49.779,158.008 49.839 C 157.793 49.862,157.354 49.981,157.031 50.105 C 156.059 50.477,150.008 52.410,149.498 52.511 C 149.237 52.562,148.584 52.799,148.047 53.036 C 147.510 53.274,144.785 54.371,141.992 55.474 C 136.367 57.697,128.859 61.285,123.926 64.107 C 122.153 65.121,120.700 65.834,120.697 65.690 C 120.694 65.547,120.562 65.631,120.404 65.877 C 120.119 66.321,110.805 72.591,110.251 72.711 C 110.092 72.746,109.785 72.981,109.570 73.233 C 108.864 74.064,105.951 76.172,105.510 76.172 C 105.273 76.172,105.077 76.304,105.077 76.465 C 105.076 76.626,103.983 77.637,102.648 78.711 C 101.313 79.785,99.174 81.594,97.895 82.731 C 96.615 83.868,95.363 84.719,95.111 84.622 C 93.156 83.872,96.326 87.491,105.011 95.927 C 110.525 101.283,120.046 110.603,126.170 116.640 C 132.294 122.677,139.374 129.616,141.902 132.061 C 144.431 134.505,146.422 136.709,146.326 136.959 C 146.214 137.249,146.443 137.335,146.965 137.199 C 147.585 137.037,147.703 137.117,147.459 137.536 C 147.284 137.839,147.276 137.964,147.442 137.815 C 147.608 137.665,148.182 138.065,148.718 138.702 C 149.255 139.340,150.070 140.055,150.530 140.292 C 151.242 140.659,149.522 138.430,148.381 137.508 C 147.687 136.947,132.001 121.710,124.771 114.574 C 120.241 110.103,111.830 101.842,106.078 96.216 C 100.327 90.590,95.684 85.823,95.760 85.623 C 96.744 83.034,116.498 68.686,125.977 63.675 C 128.125 62.539,130.322 61.331,130.859 60.991 C 131.396 60.650,131.924 60.353,132.031 60.329 C 132.370 60.255,134.079 59.501,137.302 58.004 C 150.626 51.817,168.431 47.113,185.415 45.292 C 193.482 44.428,219.509 45.111,223.438 46.290 C 223.760 46.387,224.727 46.568,225.586 46.693 C 230.363 47.386,235.929 48.607,241.797 50.248 C 247.445 51.828,260.010 56.306,262.500 57.627 C 263.037 57.911,266.201 59.466,269.531 61.081 C 279.013 65.679,288.498 71.633,296.850 78.228 C 303.106 83.169,305.078 84.867,305.078 85.317 C 305.078 85.563,292.686 98.152,277.540 113.293 C 262.394 128.433,250.001 140.962,250.001 141.135 C 250.000 141.593,252.535 139.157,262.443 129.176 C 267.309 124.276,274.158 117.420,277.664 113.942 C 291.666 100.050,305.672 85.894,305.808 85.497 C 305.973 85.014,302.930 82.105,300.488 80.411 C 299.575 79.778,298.828 79.092,298.828 78.887 C 298.828 78.683,298.647 78.516,298.426 78.516 C 297.955 78.516,294.006 75.468,293.815 74.957 C 293.743 74.766,293.445 74.609,293.151 74.609 C 292.857 74.609,292.476 74.371,292.305 74.080 C 292.133 73.790,291.592 73.341,291.102 73.084 C 290.610 72.826,290.331 72.425,290.479 72.186 C 290.639 71.927,290.567 71.865,290.298 72.031 C 289.935 72.255,286.699 70.419,285.938 69.557 C 285.830 69.435,285.083 69.001,284.277 68.591 C 283.472 68.181,282.813 67.698,282.813 67.517 C 282.813 67.336,282.633 67.188,282.413 67.188 C 282.035 67.188,275.807 63.726,275.391 63.285 C 275.283 63.171,274.272 62.654,273.145 62.136 C 272.017 61.618,271.094 61.049,271.094 60.871 C 271.094 60.693,270.947 60.591,270.767 60.645 C 270.458 60.737,264.871 58.231,264.453 57.813 C 264.346 57.705,264.082 57.586,263.867 57.547 C 263.652 57.508,262.510 57.046,261.328 56.521 C 260.146 55.995,259.004 55.526,258.789 55.478 C 258.574 55.431,258.047 55.198,257.617 54.961 C 257.188 54.724,256.635 54.496,256.388 54.454 C 256.142 54.412,254.461 53.833,252.651 53.166 C 250.842 52.500,247.879 51.514,246.068 50.975 C 244.256 50.436,242.510 49.884,242.188 49.748 C 241.865 49.612,241.338 49.467,241.016 49.426 C 240.693 49.384,238.496 48.885,236.133 48.317 C 230.915 47.062,220.100 45.071,219.425 45.242 C 219.259 45.284,217.520 45.136,215.559 44.914 C 210.915 44.388,197.405 43.738,197.119 44.026 M189.453 58.864 C 164.458 61.006,140.018 70.026,119.641 84.631 C 118.520 85.434,117.687 86.176,117.790 86.280 C 117.894 86.383,118.547 86.043,119.243 85.524 C 125.683 80.721,142.477 71.264,145.703 70.624 C 146.025 70.560,146.377 70.395,146.484 70.256 C 146.942 69.667,161.173 64.494,162.897 64.291 C 163.224 64.252,163.719 64.080,163.998 63.907 C 164.277 63.735,164.609 63.698,164.736 63.825 C 164.863 63.952,165.159 63.899,165.394 63.707 C 165.785 63.386,175.992 61.062,177.344 60.986 C 177.666 60.968,179.365 60.698,181.120 60.386 C 186.245 59.476,196.225 58.884,202.949 59.092 C 212.033 59.372,214.474 59.607,224.219 61.134 C 228.355 61.783,238.714 64.234,239.648 64.786 C 239.863 64.913,240.248 65.049,240.504 65.088 C 244.190 65.648,254.087 69.694,253.632 70.454 C 253.452 70.754,253.554 70.746,253.943 70.431 C 254.935 69.630,274.574 79.656,275.326 81.348 C 275.397 81.509,275.705 81.641,276.009 81.641 C 276.313 81.641,276.563 81.816,276.563 82.031 C 276.563 82.246,276.694 82.378,276.855 82.325 C 277.195 82.214,282.944 85.952,283.138 86.411 C 283.210 86.580,283.440 86.719,283.649 86.719 C 285.613 86.719,271.563 77.791,262.224 73.104 C 254.830 69.394,241.937 64.470,236.523 63.290 C 235.664 63.103,233.511 62.579,231.738 62.127 C 220.571 59.277,201.659 57.818,189.453 58.864 M117.188 86.967 C 117.188 87.185,120.132 90.233,123.730 93.740 C 127.329 97.248,137.361 107.153,146.023 115.753 L 161.772 131.388 180.477 112.667 C 190.765 102.370,199.422 93.895,199.715 93.833 C 200.008 93.771,202.521 95.959,205.300 98.695 C 210.655 103.968,213.992 107.043,212.695 105.510 C 211.344 103.913,200.375 93.171,199.940 93.020 C 199.712 92.941,191.105 101.290,180.813 111.575 C 170.521 121.859,161.966 130.319,161.801 130.375 C 161.637 130.430,156.899 125.860,151.273 120.218 C 145.648 114.577,138.621 107.623,135.659 104.765 C 132.697 101.907,127.329 96.644,123.730 93.070 C 120.132 89.495,117.188 86.749,117.188 86.967 M262.319 107.791 C 250.952 119.165,241.481 128.367,241.273 128.238 C 241.065 128.109,241.004 128.180,241.137 128.395 C 241.270 128.611,240.860 129.284,240.226 129.891 L 239.073 130.995 236.662 128.584 C 235.335 127.257,234.063 126.172,233.836 126.172 C 233.608 126.172,234.559 127.320,235.949 128.724 C 237.484 130.275,238.745 131.233,239.161 131.166 C 239.693 131.079,283.594 87.655,283.594 87.215 C 283.594 86.616,280.200 89.898,262.319 107.791 M81.936 98.518 C 80.757 99.870,78.463 102.822,76.837 105.078 C 75.212 107.334,73.606 109.487,73.269 109.863 C 72.932 110.239,72.656 110.723,72.656 110.938 C 72.656 111.152,72.480 111.328,72.266 111.328 C 72.051 111.328,71.875 111.592,71.875 111.914 C 71.875 112.236,71.567 112.503,71.191 112.506 C 70.654 112.511,70.622 112.584,71.043 112.851 C 71.475 113.125,71.437 113.272,70.848 113.614 C 70.446 113.848,70.240 114.044,70.389 114.051 C 70.539 114.057,69.407 116.128,67.874 118.652 C 64.747 123.802,59.873 133.750,57.587 139.648 C 56.755 141.797,55.981 143.643,55.869 143.750 C 55.756 143.857,55.639 144.121,55.609 144.336 C 55.579 144.551,54.752 147.198,53.770 150.219 C 52.147 155.214,49.440 165.655,49.016 168.555 C 48.922 169.199,48.483 171.973,48.041 174.719 C 46.808 182.379,46.503 186.192,46.392 195.313 C 46.293 203.358,46.678 214.990,47.062 215.612 C 47.163 215.775,47.333 216.855,47.440 218.013 C 47.548 219.170,48.005 222.139,48.457 224.609 C 48.909 227.080,49.330 229.453,49.393 229.883 C 49.455 230.313,49.605 230.928,49.727 231.250 C 49.848 231.572,50.413 233.745,50.982 236.078 C 55.496 254.595,64.428 272.532,77.601 289.528 L 81.140 294.094 108.920 266.285 C 134.966 240.213,139.422 235.667,139.444 235.140 C 139.449 235.023,130.620 243.775,119.824 254.587 C 89.104 285.354,81.648 292.765,81.295 292.886 C 80.872 293.030,75.692 286.336,71.715 280.506 C 60.655 264.294,52.875 245.470,49.422 226.563 C 48.321 220.538,48.083 218.985,47.655 215.039 C 47.422 212.891,47.140 210.382,47.028 209.465 C 46.780 207.428,46.784 188.968,47.033 187.090 C 47.132 186.349,47.317 184.600,47.446 183.203 C 49.426 161.665,57.443 137.125,68.501 118.750 C 69.988 116.279,71.487 113.783,71.833 113.202 C 74.392 108.900,83.576 96.875,84.302 96.875 C 84.601 96.875,86.681 98.860,100.441 112.279 C 111.945 123.498,113.255 124.593,104.358 115.556 C 100.417 111.552,97.124 108.257,97.040 108.233 C 96.669 108.126,95.077 106.423,95.166 106.227 C 95.221 106.108,94.793 105.668,94.215 105.251 C 93.637 104.834,91.264 102.647,88.943 100.391 C 83.795 95.389,84.501 95.578,81.936 98.518 M287.596 123.872 L 259.761 151.634 255.053 147.009 C 252.463 144.464,250.135 142.311,249.879 142.223 C 249.623 142.136,251.684 144.289,254.458 147.008 C 257.232 149.728,259.647 151.953,259.823 151.953 C 260.000 151.953,272.556 139.604,287.725 124.512 C 302.895 109.419,315.434 97.022,315.589 96.964 C 315.745 96.905,317.178 98.487,318.774 100.480 C 320.370 102.472,321.765 104.189,321.874 104.297 C 328.037 110.360,340.487 133.909,345.830 149.609 C 355.282 177.380,355.978 216.206,347.466 240.820 C 347.169 241.680,346.548 243.613,346.086 245.117 C 344.797 249.310,340.784 259.121,338.575 263.477 C 337.486 265.625,336.334 267.910,336.015 268.555 C 333.343 273.951,320.959 292.040,319.187 293.135 C 319.024 293.236,305.894 280.321,290.011 264.434 C 274.128 248.547,260.941 235.548,260.706 235.548 C 260.472 235.547,257.651 238.183,254.439 241.405 C 251.226 244.627,248.863 247.220,249.186 247.167 C 249.510 247.114,250.309 246.466,250.962 245.728 C 252.583 243.895,256.337 240.237,256.612 240.223 C 256.844 240.211,258.006 238.876,259.406 237.012 C 259.850 236.421,260.452 235.938,260.744 235.938 C 261.036 235.938,261.625 236.421,262.052 237.012 C 262.480 237.603,274.797 250.039,289.424 264.648 C 304.051 279.258,315.938 291.425,315.839 291.687 C 315.740 291.948,315.854 292.283,316.093 292.431 C 316.356 292.593,316.417 292.521,316.248 292.248 C 315.721 291.394,316.567 291.799,317.792 292.986 L 319.019 294.176 320.629 292.303 C 328.065 283.653,340.918 262.540,342.398 256.543 C 342.544 255.952,342.790 255.469,342.946 255.469 C 343.102 255.469,343.242 255.249,343.259 254.980 C 343.275 254.712,343.674 253.525,344.145 252.344 C 347.276 244.495,351.231 230.036,352.104 223.242 C 352.186 222.598,352.448 220.752,352.684 219.141 C 354.520 206.617,354.441 189.522,352.483 175.977 C 352.142 173.613,351.816 171.240,351.759 170.703 C 351.702 170.166,351.554 169.463,351.431 169.141 C 351.307 168.818,350.934 167.198,350.602 165.539 C 349.826 161.666,348.301 155.702,347.108 151.882 C 346.592 150.232,346.271 148.782,346.393 148.659 C 346.515 148.537,346.410 148.438,346.159 148.438 C 345.908 148.438,345.703 148.152,345.703 147.804 C 345.703 145.339,337.075 126.761,332.050 118.406 C 330.321 115.531,328.906 113.041,328.906 112.872 C 328.906 112.703,328.758 112.507,328.576 112.435 C 328.394 112.363,327.573 111.338,326.750 110.156 C 324.232 106.539,322.160 103.763,321.140 102.637 C 320.604 102.046,320.285 101.563,320.429 101.563 C 320.574 101.563,319.818 100.640,318.750 99.512 C 317.681 98.384,316.705 97.153,316.580 96.777 C 316.143 95.458,315.210 96.330,287.596 123.872 M223.242 116.215 C 228.613 121.474,233.156 125.778,233.337 125.779 C 233.518 125.780,229.299 121.477,223.962 116.216 C 218.625 110.955,214.082 106.650,213.867 106.651 C 213.652 106.652,217.871 110.955,223.242 116.215 M209.375 122.864 C 214.424 127.979,219.346 132.872,220.313 133.735 C 222.112 135.343,228.474 141.567,248.038 160.858 C 254.156 166.891,259.254 171.733,259.366 171.618 C 259.478 171.503,254.561 166.488,248.438 160.474 C 242.314 154.460,229.241 141.601,219.385 131.898 C 209.529 122.196,201.179 114.101,200.830 113.910 C 200.481 113.719,204.326 117.748,209.375 122.864 M189.921 123.242 C 185.500 127.646,181.740 131.250,181.566 131.250 C 181.392 131.250,181.250 131.399,181.250 131.582 C 181.250 131.967,181.342 131.875,158.671 154.227 C 149.153 163.611,141.127 171.289,140.835 171.289 C 140.353 171.289,126.843 158.173,97.704 129.415 C 87.114 118.964,85.089 117.117,88.399 120.927 C 89.847 122.593,91.803 124.529,98.860 131.279 C 99.630 132.015,100.376 132.936,100.518 133.326 C 100.660 133.715,100.922 133.944,101.100 133.834 C 101.603 133.522,125.524 157.671,125.212 158.176 C 125.064 158.416,125.087 158.588,125.264 158.557 C 125.943 158.439,126.526 158.612,127.038 159.082 C 127.331 159.351,130.494 162.440,134.067 165.948 C 139.574 171.353,140.674 172.266,141.279 171.937 C 141.671 171.723,147.178 166.352,153.516 160.001 C 159.854 153.650,165.288 148.450,165.592 148.446 C 165.897 148.441,166.052 148.344,165.937 148.229 C 165.823 148.115,166.578 147.192,167.616 146.178 C 169.196 144.635,197.910 115.939,198.405 115.409 C 198.494 115.313,198.431 115.234,198.264 115.234 C 198.097 115.234,194.343 118.838,189.921 123.242 M85.728 118.658 C 84.524 119.511,76.846 132.958,74.077 139.063 C 71.364 145.043,71.354 145.070,68.728 152.591 C 57.140 185.792,59.312 225.152,74.486 256.972 C 76.601 261.406,82.093 270.643,82.770 270.903 C 83.176 271.059,91.914 262.564,110.917 243.540 C 126.075 228.367,138.787 215.780,139.166 215.571 C 139.886 215.172,141.836 216.238,142.475 217.380 C 142.642 217.678,144.102 219.294,145.721 220.972 C 147.340 222.650,153.654 229.297,159.751 235.742 C 169.722 246.281,178.193 255.041,192.897 270.020 C 195.586 272.759,197.962 275.000,198.177 275.000 C 198.392 275.000,198.494 274.918,198.405 274.817 C 198.315 274.716,194.551 270.885,190.039 266.303 C 180.855 256.977,171.435 247.261,165.331 240.820 C 163.092 238.457,159.825 235.015,158.071 233.170 C 156.318 231.326,153.143 227.986,151.016 225.749 C 143.483 217.822,140.033 214.454,139.542 214.551 C 139.269 214.605,126.417 227.282,110.982 242.722 L 82.918 270.796 80.286 266.427 C 76.857 260.736,71.416 249.412,70.891 246.875 C 70.869 246.768,70.560 246.013,70.204 245.199 C 68.632 241.598,65.766 231.408,64.296 224.189 C 63.749 221.506,63.588 220.424,63.079 216.016 C 62.992 215.264,62.751 213.238,62.542 211.514 C 61.552 203.319,61.595 194.628,62.684 182.813 C 62.773 181.846,62.867 180.791,62.893 180.469 C 63.275 175.648,65.833 163.067,66.997 160.280 C 67.295 159.568,67.475 158.984,67.398 158.984 C 66.934 158.984,71.126 146.801,71.918 145.847 C 72.162 145.553,72.260 145.313,72.136 145.313 C 71.783 145.313,74.260 139.683,74.754 139.361 C 74.997 139.204,75.048 139.072,74.868 139.068 C 74.168 139.056,81.445 125.873,85.707 119.434 C 86.435 118.333,86.440 118.154,85.728 118.658 M286.707 145.510 C 271.984 160.225,260.048 172.266,260.182 172.266 C 260.316 172.266,260.738 171.921,261.119 171.500 C 261.500 171.079,261.945 170.771,262.109 170.816 C 262.495 170.923,264.431 168.858,264.180 168.607 C 264.074 168.501,264.591 168.020,265.327 167.538 C 266.063 167.055,266.957 166.152,267.314 165.531 C 267.670 164.910,268.139 164.512,268.356 164.646 C 268.573 164.780,268.750 164.748,268.751 164.574 C 268.752 164.279,273.092 159.780,275.768 157.300 C 276.420 156.695,276.953 156.015,276.953 155.787 C 276.953 155.535,277.220 155.575,277.637 155.890 C 278.108 156.247,278.186 156.255,277.888 155.916 C 277.559 155.541,278.067 154.853,280.037 153.006 C 281.456 151.675,282.676 150.452,282.749 150.288 C 282.900 149.947,286.538 146.291,291.733 141.259 C 293.702 139.352,295.313 137.746,295.313 137.689 C 295.313 137.262,313.037 120.127,313.442 120.163 C 313.766 120.192,313.890 119.933,313.772 119.479 C 313.667 119.078,313.557 118.751,313.529 118.752 C 313.500 118.753,301.430 130.794,286.707 145.510 M314.846 119.925 C 315.304 120.568,315.580 121.094,315.460 121.094 C 315.340 121.094,315.548 121.450,315.922 121.885 C 317.398 123.605,320.733 129.530,320.572 130.147 C 320.470 130.536,320.587 130.730,320.860 130.625 C 321.133 130.520,322.442 132.704,324.096 136.025 C 335.757 159.445,340.429 182.912,338.563 208.700 C 337.915 217.646,334.868 233.740,333.499 235.449 C 333.284 235.718,333.207 235.938,333.330 235.938 C 333.638 235.938,332.433 239.928,331.944 240.527 C 331.724 240.796,331.649 241.016,331.777 241.016 C 332.797 241.016,322.812 263.989,321.402 264.887 C 321.196 265.019,321.068 265.195,321.118 265.278 C 321.168 265.361,320.818 266.196,320.341 267.132 C 318.978 269.803,320.113 268.847,321.667 266.016 C 323.425 262.811,326.715 255.996,327.985 252.930 C 328.519 251.641,329.276 249.883,329.668 249.023 C 330.059 248.164,330.606 246.670,330.883 245.703 C 331.160 244.736,331.508 243.770,331.657 243.555 C 332.295 242.633,334.680 234.383,336.525 226.724 C 337.017 224.676,338.033 218.333,338.873 212.052 C 340.428 200.426,339.164 180.082,336.109 167.578 C 335.558 165.322,334.938 162.773,334.731 161.914 C 331.854 149.971,317.919 120.349,314.526 118.965 C 314.244 118.850,314.388 119.282,314.846 119.925 M112.109 123.627 C 112.432 124.022,113.662 125.269,114.844 126.398 C 116.025 127.528,121.029 132.408,125.963 137.243 C 130.898 142.079,135.116 145.921,135.338 145.781 C 135.581 145.628,135.508 145.476,135.156 145.401 C 134.834 145.333,130.212 140.927,124.885 135.611 C 119.558 130.295,115.142 126.004,115.071 126.075 C 114.999 126.147,114.458 125.626,113.867 124.919 C 113.277 124.212,112.508 123.470,112.159 123.271 C 111.586 122.944,111.582 122.980,112.109 123.627 M149.930 141.557 C 149.646 141.854,147.451 144.127,145.052 146.606 L 140.690 151.115 138.512 148.832 C 137.314 147.576,136.252 146.681,136.152 146.843 C 136.052 147.006,137.039 148.147,138.345 149.380 L 140.720 151.621 145.386 147.002 C 149.543 142.886,151.180 141.016,150.628 141.016 C 150.528 141.016,150.214 141.259,149.930 141.557 M199.551 144.856 C 199.476 145.056,197.719 147.042,195.647 149.270 C 193.575 151.498,187.933 157.715,183.108 163.086 C 170.421 177.212,162.492 185.990,158.501 190.327 L 155.001 194.131 156.114 194.568 C 157.174 194.985,163.710 197.359,174.805 201.358 C 183.737 204.577,191.590 207.495,191.992 207.744 C 192.207 207.876,192.704 208.035,193.096 208.096 C 193.488 208.157,194.191 208.420,194.658 208.680 C 195.126 208.939,195.596 209.162,195.703 209.175 C 195.811 209.188,196.713 209.431,197.708 209.715 C 199.441 210.210,199.688 210.171,203.567 208.787 C 205.795 207.993,210.078 206.498,213.086 205.465 C 216.094 204.432,219.785 203.143,221.289 202.601 C 230.375 199.327,235.156 197.710,235.156 197.912 C 235.156 198.039,235.376 197.968,235.645 197.754 C 236.185 197.325,242.320 195.031,243.555 194.797 C 246.100 194.314,245.860 193.808,240.334 188.010 C 237.850 185.404,235.957 183.374,229.113 175.977 C 225.933 172.539,221.186 167.441,218.564 164.648 C 215.942 161.855,211.996 157.549,209.796 155.078 C 204.694 149.351,202.246 146.842,201.999 147.090 C 201.891 147.198,202.773 148.292,203.959 149.522 C 205.145 150.752,207.642 153.474,209.509 155.572 C 211.375 157.670,213.208 159.702,213.580 160.086 C 214.656 161.196,223.449 170.627,226.205 173.625 C 227.583 175.125,230.029 177.765,231.641 179.491 C 240.556 189.044,243.593 192.347,244.021 192.959 C 244.629 193.826,244.497 193.889,235.156 197.154 C 231.182 198.544,226.172 200.301,224.023 201.059 C 216.592 203.680,215.017 204.233,209.961 205.998 C 207.168 206.973,203.918 208.131,202.740 208.573 C 199.721 209.703,198.274 209.586,193.889 207.858 C 190.268 206.431,185.512 204.671,181.055 203.108 C 179.980 202.732,176.113 201.328,172.461 199.990 C 168.809 198.651,164.854 197.212,163.672 196.791 C 158.570 194.975,156.250 194.058,156.250 193.861 C 156.250 193.745,156.897 192.925,157.687 192.040 C 160.102 189.334,165.299 183.574,167.773 180.859 C 169.063 179.445,170.967 177.329,172.005 176.156 C 173.044 174.983,174.817 173.057,175.945 171.875 C 178.800 168.884,194.014 151.891,195.822 149.674 C 198.632 146.227,200.031 145.226,200.945 146.008 C 201.717 146.668,201.720 146.663,201.125 145.725 C 200.459 144.675,199.763 144.291,199.551 144.856 M152.308 201.324 C 152.555 201.622,153.576 202.072,154.576 202.324 C 155.577 202.576,158.691 203.672,161.498 204.759 C 164.305 205.847,168.887 207.615,171.680 208.688 C 174.473 209.761,177.780 211.058,179.030 211.570 C 180.279 212.081,181.482 212.500,181.702 212.500 C 181.922 212.500,183.712 213.192,185.680 214.037 C 191.268 216.437,197.670 218.866,197.874 218.662 C 197.976 218.561,195.464 217.455,192.291 216.204 C 189.119 214.954,185.732 213.580,184.766 213.150 C 183.799 212.720,182.920 212.347,182.813 212.321 C 181.713 212.051,178.068 210.701,177.148 210.223 C 176.504 209.888,175.681 209.563,175.319 209.501 C 174.319 209.329,168.621 207.018,168.066 206.559 C 167.798 206.336,167.578 206.261,167.578 206.392 C 167.578 206.655,163.201 205.101,162.891 204.727 C 162.783 204.598,162.432 204.440,162.109 204.376 C 160.940 204.144,156.051 202.157,155.924 201.861 C 155.852 201.694,155.651 201.645,155.477 201.753 C 155.303 201.860,154.533 201.685,153.765 201.365 C 152.032 200.640,151.734 200.632,152.308 201.324 M245.313 201.631 C 234.562 205.682,222.208 210.234,221.796 210.297 C 221.517 210.339,221.106 210.488,220.882 210.628 C 220.156 211.083,215.234 212.861,215.234 212.669 C 215.234 212.566,214.833 212.745,214.342 213.066 C 213.852 213.388,213.105 213.705,212.682 213.770 C 212.260 213.836,211.722 214.010,211.488 214.156 C 210.967 214.482,200.064 218.587,199.003 218.856 C 198.415 219.006,198.391 219.060,198.895 219.095 C 199.834 219.160,203.360 217.908,221.289 211.139 C 230.547 207.644,235.705 205.725,238.867 204.600 C 239.512 204.371,240.215 204.054,240.430 203.897 C 240.645 203.739,241.825 203.322,243.052 202.970 C 244.279 202.618,245.583 202.216,245.948 202.075 C 246.398 201.903,246.521 201.968,246.330 202.277 C 245.787 203.156,246.686 202.701,247.382 201.746 C 248.220 200.594,248.086 200.586,245.313 201.631 M155.104 204.590 C 157.851 207.735,162.413 212.791,164.613 215.127 C 165.882 216.475,166.833 217.578,166.726 217.578 C 166.619 217.578,167.514 218.600,168.715 219.848 C 173.878 225.215,183.201 235.155,188.892 241.361 C 189.953 242.517,192.842 245.559,195.313 248.121 L 199.805 252.779 202.776 249.729 C 204.411 248.052,207.816 244.482,210.344 241.797 C 212.872 239.111,215.532 236.343,216.254 235.645 C 216.976 234.946,217.479 234.375,217.371 234.375 C 217.263 234.375,217.686 233.892,218.310 233.301 C 218.933 232.710,221.951 229.502,225.015 226.172 C 228.079 222.842,231.511 219.150,232.641 217.969 C 233.772 216.787,236.578 213.711,238.879 211.133 C 241.179 208.555,243.763 205.776,244.620 204.957 C 245.477 204.139,246.056 203.348,245.908 203.200 C 245.760 203.051,244.759 203.897,243.684 205.078 C 241.600 207.368,231.952 217.867,227.734 222.435 C 226.338 223.947,223.701 226.772,221.875 228.713 C 220.049 230.655,217.427 233.469,216.049 234.969 C 207.601 244.159,199.864 251.915,199.405 251.654 C 199.128 251.496,197.539 249.873,195.875 248.047 C 194.210 246.221,190.357 242.090,187.311 238.867 C 184.266 235.645,180.557 231.696,179.070 230.092 C 177.584 228.488,175.637 226.411,174.745 225.476 C 173.158 223.814,169.333 219.648,164.648 214.481 C 163.359 213.059,160.811 210.249,158.984 208.237 C 157.158 206.224,155.434 204.251,155.154 203.851 C 154.873 203.452,154.459 203.125,154.234 203.125 C 154.009 203.125,154.401 203.784,155.104 204.590 M257.129 216.862 C 255.679 218.223,254.327 219.600,254.125 219.922 C 253.770 220.491,250.172 224.235,235.925 238.866 C 232.159 242.734,225.750 249.326,221.683 253.516 C 217.616 257.705,211.095 264.334,207.192 268.247 C 203.288 272.160,199.980 275.676,199.839 276.060 C 199.579 276.766,207.871 268.473,222.002 253.890 C 226.262 249.495,234.524 241.008,240.362 235.030 C 246.200 229.053,252.931 222.113,255.321 219.608 C 259.279 215.459,259.725 215.105,260.346 215.620 C 260.956 216.126,261.013 216.108,260.885 215.450 C 260.617 214.068,259.766 214.387,257.129 216.862 M261.328 215.791 C 261.328 216.205,305.166 260.267,306.235 260.928 C 306.499 261.092,309.069 263.565,311.947 266.424 C 314.824 269.284,317.270 271.532,317.383 271.419 C 317.495 271.307,316.179 269.865,314.458 268.216 C 312.736 266.567,311.328 265.133,311.328 265.031 C 311.328 264.785,309.821 263.281,309.575 263.281 C 309.072 263.281,307.881 261.924,308.088 261.589 C 308.218 261.379,308.153 261.313,307.943 261.443 C 307.734 261.572,297.160 251.253,284.445 238.511 C 271.731 225.769,261.328 215.545,261.328 215.791 M139.844 235.849 C 139.844 236.096,140.127 236.524,140.474 236.801 C 140.821 237.078,142.379 238.535,143.936 240.039 C 145.494 241.543,147.823 243.774,149.113 244.997 L 151.457 247.220 136.373 262.270 C 128.077 270.548,120.638 278.044,119.843 278.929 C 118.951 279.922,118.217 280.427,117.927 280.248 C 117.618 280.057,117.560 280.123,117.756 280.441 C 117.954 280.761,113.849 285.140,105.609 293.400 C 98.764 300.262,93.111 306.033,93.046 306.223 C 92.981 306.414,94.196 307.772,95.746 309.242 C 97.296 310.712,98.888 312.222,99.282 312.598 C 99.677 312.974,100.163 313.281,100.362 313.281 C 100.562 313.281,101.070 313.721,101.493 314.258 C 101.915 314.795,102.445 315.234,102.671 315.234 C 102.896 315.234,103.310 315.544,103.591 315.922 C 103.872 316.301,104.483 316.872,104.949 317.192 C 108.052 319.322,112.717 322.821,112.826 323.102 C 112.897 323.286,113.129 323.438,113.341 323.438 C 113.693 323.438,117.120 325.628,117.578 326.146 C 117.686 326.268,118.389 326.702,119.141 327.112 C 124.104 329.817,127.558 331.840,127.669 332.109 C 127.741 332.281,127.954 332.422,128.144 332.422 C 128.333 332.422,130.569 333.449,133.112 334.705 C 137.122 336.685,146.217 340.494,149.805 341.697 C 150.479 341.923,150.923 342.318,150.851 342.627 C 150.758 343.023,150.842 343.050,151.169 342.729 C 151.496 342.408,152.529 342.581,155.092 343.384 C 160.416 345.054,172.745 347.976,175.000 348.103 C 175.322 348.121,177.344 348.383,179.492 348.684 C 187.574 349.819,200.443 350.275,209.391 349.743 C 225.139 348.807,235.978 346.734,249.414 342.087 C 253.066 340.824,256.274 339.773,256.543 339.752 C 256.812 339.731,257.031 339.586,257.031 339.430 C 257.031 339.275,257.515 339.028,258.105 338.882 C 259.113 338.634,272.160 332.486,273.438 331.658 C 275.733 330.170,280.144 327.493,281.436 326.804 C 282.290 326.349,283.345 325.675,283.780 325.307 C 284.215 324.939,284.708 324.638,284.877 324.638 C 285.046 324.638,285.443 324.378,285.760 324.062 C 286.328 323.493,292.056 319.311,293.302 318.555 C 293.656 318.340,294.070 317.973,294.221 317.741 C 294.373 317.508,295.252 316.805,296.174 316.178 C 297.095 315.552,298.114 314.753,298.437 314.403 C 298.759 314.053,300.842 312.137,303.064 310.144 L 307.104 306.522 290.060 289.474 C 280.686 280.098,273.111 272.303,273.227 272.151 C 273.343 271.999,273.335 271.948,273.210 272.038 C 272.899 272.260,271.262 270.588,271.396 270.186 C 271.455 270.009,271.351 269.958,271.165 270.073 C 270.978 270.188,268.909 268.305,266.565 265.887 C 264.222 263.469,260.607 259.741,258.531 257.601 C 252.580 251.467,248.313 247.389,248.755 248.260 C 249.036 248.813,301.553 302.034,306.031 306.304 C 306.987 307.215,286.402 323.415,279.102 327.496 C 278.457 327.857,277.051 328.695,275.977 329.360 C 246.254 347.745,204.859 354.034,166.992 345.917 C 145.084 341.221,120.782 329.459,103.657 315.263 C 101.694 313.636,99.409 311.747,98.579 311.066 C 95.863 308.837,93.682 306.648,93.815 306.285 C 93.961 305.885,114.800 284.732,137.218 262.226 L 152.083 247.303 147.164 242.499 C 139.972 235.476,139.844 235.360,139.844 235.849 M218.947 277.539 C 208.680 287.959,200.086 296.484,199.849 296.484 C 199.611 296.484,191.030 288.098,180.779 277.849 C 170.528 267.600,162.051 259.303,161.941 259.413 C 161.832 259.522,170.316 268.174,180.795 278.639 L 199.848 297.666 209.054 288.384 C 231.950 265.298,238.413 258.594,237.772 258.594 C 237.685 258.594,229.214 267.119,218.947 277.539 M239.453 259.579 C 239.453 259.971,239.996 260.529,253.629 274.131 C 260.029 280.517,269.434 289.929,274.528 295.047 C 279.621 300.165,284.141 304.541,284.570 304.772 C 285.000 305.003,275.456 295.277,263.361 283.157 C 251.267 271.038,241.247 260.949,241.096 260.737 C 240.636 260.093,239.453 259.259,239.453 259.579 M137.472 282.265 C 113.305 306.461,115.185 304.543,116.135 304.034 C 116.988 303.576,118.816 301.768,141.211 279.221 C 150.879 269.487,159.041 261.422,159.349 261.298 C 159.683 261.163,159.750 260.974,159.516 260.830 C 159.301 260.696,149.381 270.342,137.472 282.265 M318.610 270.410 L 317.912 271.680 318.722 270.758 C 319.421 269.961,319.775 269.141,319.420 269.141 C 319.359 269.141,318.995 269.712,318.610 270.410 M114.844 305.422 C 114.844 306.195,124.891 313.138,132.090 317.340 C 144.837 324.781,163.162 331.369,176.172 333.188 C 187.699 334.800,188.722 334.876,199.414 334.900 C 219.554 334.945,234.062 332.355,252.178 325.479 C 260.936 322.155,272.926 315.358,281.836 308.665 C 284.967 306.314,285.031 306.250,284.274 306.250 C 283.917 306.250,283.223 306.656,282.731 307.152 C 281.491 308.401,279.044 310.156,278.542 310.156 C 278.313 310.156,278.125 310.332,278.125 310.547 C 278.125 310.762,277.958 310.938,277.755 310.938 C 277.551 310.938,276.892 311.394,276.290 311.953 C 275.136 313.023,267.407 317.674,266.954 317.572 C 266.808 317.538,266.580 317.688,266.446 317.904 C 265.501 319.433,244.899 328.115,240.039 329.032 C 239.609 329.113,238.994 329.286,238.672 329.417 C 237.551 329.871,232.528 331.025,230.071 331.393 C 229.745 331.442,229.306 331.588,229.095 331.716 C 228.228 332.245,213.512 334.169,208.203 334.447 C 196.372 335.067,178.903 333.683,170.117 331.429 C 168.828 331.098,167.422 330.769,166.992 330.698 C 166.563 330.627,166.211 330.534,166.211 330.492 C 166.211 330.449,165.771 330.353,165.234 330.277 C 164.697 330.201,162.148 329.489,159.570 328.694 C 156.992 327.900,154.575 327.163,154.199 327.056 C 153.823 326.949,153.516 326.696,153.516 326.494 C 153.516 326.291,153.351 326.228,153.149 326.352 C 152.358 326.841,133.129 317.941,132.389 316.743 C 132.251 316.521,132.021 316.366,131.876 316.398 C 131.388 316.508,126.563 313.638,126.563 313.239 C 126.563 313.022,126.419 312.933,126.243 313.042 C 126.067 313.151,125.460 312.809,124.893 312.284 C 124.326 311.758,123.761 311.328,123.637 311.328 C 123.264 311.328,117.325 307.082,116.781 306.426 C 116.093 305.597,114.844 304.949,114.844 305.422 " stroke="none" fill="#f2bb40" fill-rule="evenodd"></path></g></svg>